solid
 facet normal 0.026583 0.129040 -0.050324
  outer loop
   vertex -0.05032379925 0.7557228208 -0.652954936 
   vertex -0.2227855027 0.9185739756 -0.3264769912 
   vertex 0.3449245691 0.67429775 -0.652954936 
  endloop
 endfacet
 facet normal 0.053167 0.258079 -0.100648
  outer loop
   vertex -0.2227855027 0.9185739756 -0.3264769912 
   vertex 1.387778781e-17 1 2.220446049e-16 
   vertex 0.3449245691 0.67429775 -0.652954936 
  endloop
 endfacet
 facet normal 0.053168 0.258079 -0.100647
  outer loop
   vertex 0.3449245691 0.67429775 -0.652954936 
   vertex 1.387778781e-17 1 2.220446049e-16 
   vertex 0.5677101016 0.7557228208 -0.3264769912 
  endloop
 endfacet
 facet normal 0.026584 0.129039 -0.050324
  outer loop
   vertex 1.387778781e-17 1 2.220446049e-16 
   vertex 0.3952477872 0.9185739756 2.07635926e-16 
   vertex 0.5677101016 0.7557228208 -0.3264769912 
  endloop
 endfacet
 facet normal 0.029968 0.145469 0.043917
  outer loop
   vertex -0.1440969557 0.9185739756 0.3680450618 
   vertex 0.1620949954 0.7868247032 0.5955092907 
   vertex 1.387778781e-17 1 2.220446049e-16 
  endloop
 endfacet
 facet normal 0.048490 0.235374 0.071058
  outer loop
   vertex 1.387778781e-17 1 2.220446049e-16 
   vertex 0.1620949954 0.7868247032 0.5955092907 
   vertex 0.3952477872 0.9185739756 2.07635926e-16 
  endloop
 endfacet
 facet normal 0.029968 0.145469 0.043916
  outer loop
   vertex 0.1620949954 0.7868247032 0.5955092907 
   vertex 0.4954279959 0.7868247032 0.3680450618 
   vertex 0.3952477872 0.9185739756 2.07635926e-16 
  endloop
 endfacet
 facet normal 0.102950 0.096180 0.006407
  outer loop
   vertex 0.3952477872 0.9185739756 2.07635926e-16 
   vertex 0.4954279959 0.7868247032 0.3680450618 
   vertex 0.5677101016 0.7557228208 -0.3264769912 
  endloop
 endfacet
 facet normal 0.205899 0.192361 0.012815
  outer loop
   vertex 0.4954279959 0.7868247032 0.3680450618 
   vertex 0.768070519 0.4922242761 0.4096131325 
   vertex 0.5677101016 0.7557228208 -0.3264769912 
  endloop
 endfacet
 facet normal 0.205900 0.192361 0.012815
  outer loop
   vertex 0.5677101016 0.7557228208 -0.3264769912 
   vertex 0.768070519 0.4922242761 0.4096131325 
   vertex 0.8403525949 0.4611224234 -0.284909904 
  endloop
 endfacet
 facet normal 0.102950 0.096181 0.006407
  outer loop
   vertex 0.768070519 0.4922242761 0.4096131325 
   vertex 0.9405328035 0.3293731511 0.0831354633 
   vertex 0.8403525949 0.4611224234 -0.284909904 
  endloop
 endfacet
 facet normal 0.136608 0.010155 -0.033549
  outer loop
   vertex 0.9321449399 -0.3293731511 -0.1503937244 
   vertex 0.8319647312 -0.1976238936 -0.5184388161 
   vertex 0.9864250422 -0.06587462872 0.1503937244 
  endloop
 endfacet
 facet normal 0.273216 0.020308 -0.067097
  outer loop
   vertex 0.8319647312 -0.1976238936 -0.5184388161 
   vertex 0.7860685587 0.1976238936 -0.5856963992 
   vertex 0.9864250422 -0.06587462872 0.1503937244 
  endloop
 endfacet
 facet normal 0.273216 0.020305 -0.067098
  outer loop
   vertex 0.9864250422 -0.06587462872 0.1503937244 
   vertex 0.7860685587 0.1976238936 -0.5856963992 
   vertex 0.9405328035 0.3293731511 0.0831354633 
  endloop
 endfacet
 facet normal 0.136608 0.010154 -0.033549
  outer loop
   vertex 0.9405328035 0.3293731511 0.0831354633 
   vertex 0.7860685587 0.1976238936 -0.5856963992 
   vertex 0.8403525949 0.4611224234 -0.284909904 
  endloop
 endfacet
 facet normal -0.059937 0.112610 -0.087833
  outer loop
   vertex -0.05032379925 0.7557228208 -0.652954936 
   vertex -0.3106189966 0.4922242761 -0.8131606579 
   vertex -0.2227855027 0.9185739756 -0.3264769912 
  endloop
 endfacet
 facet normal -0.096979 0.182207 -0.142116
  outer loop
   vertex -0.3106189966 0.4922242761 -0.8131606579 
   vertex -0.6439520121 0.4922242761 -0.5856963992 
   vertex -0.2227855027 0.9185739756 -0.3264769912 
  endloop
 endfacet
 facet normal -0.059936 0.112610 -0.087833
  outer loop
   vertex -0.6439520121 0.4922242761 -0.5856963992 
   vertex -0.5896679759 0.7557228208 -0.284909904 
   vertex -0.2227855027 0.9185739756 -0.3264769912 
  endloop
 endfacet
 facet normal -0.121471 0.063321 -0.033550
  outer loop
   vertex -0.9321449399 0.3293731511 0.1503937244 
   vertex -0.7337649465 0.67429775 0.0831354633 
   vertex -0.9864250422 0.06587462872 -0.1503937244 
  endloop
 endfacet
 facet normal -0.242942 0.126641 -0.067099
  outer loop
   vertex -0.7337649465 0.67429775 0.0831354633 
   vertex -0.5896679759 0.7557228208 -0.284909904 
   vertex -0.9864250422 0.06587462872 -0.1503937244 
  endloop
 endfacet
 facet normal -0.242942 0.126642 -0.067096
  outer loop
   vertex -0.9864250422 0.06587462872 -0.1503937244 
   vertex -0.5896679759 0.7557228208 -0.284909904 
   vertex -0.8423320055 0.1473006904 -0.5184388161 
  endloop
 endfacet
 facet normal -0.121471 0.063321 -0.033549
  outer loop
   vertex -0.5896679759 0.7557228208 -0.284909904 
   vertex -0.6439520121 0.4922242761 -0.5856963992 
   vertex -0.8423320055 0.1473006904 -0.5184388161 
  endloop
 endfacet
 facet normal -0.078458 0.022705 -0.114975
  outer loop
   vertex -0.3740460277 -0.1976238936 -0.9061096907 
   vertex -0.7073790431 -0.1976238936 -0.6786444783 
   vertex -0.1756660044 0.1473006904 -0.9733672738 
  endloop
 endfacet
 facet normal -0.156916 0.045410 -0.229949
  outer loop
   vertex -0.1756660044 0.1473006904 -0.9733672738 
   vertex -0.7073790431 -0.1976238936 -0.6786444783 
   vertex -0.3106189966 0.4922242761 -0.8131606579 
  endloop
 endfacet
 facet normal -0.156916 0.045410 -0.229949
  outer loop
   vertex -0.7073790431 -0.1976238936 -0.6786444783 
   vertex -0.8423320055 0.1473006904 -0.5184388161 
   vertex -0.3106189966 0.4922242761 -0.8131606579 
  endloop
 endfacet
 facet normal -0.078458 0.022705 -0.114974
  outer loop
   vertex -0.6439520121 0.4922242761 -0.5856963992 
   vertex -0.3106189966 0.4922242761 -0.8131606579 
   vertex -0.8423320055 0.1473006904 -0.5184388161 
  endloop
 endfacet
 facet normal -0.056552 0.129039 0.006407
  outer loop
   vertex -0.2227855027 0.9185739756 -0.3264769912 
   vertex -0.5896679759 0.7557228208 -0.284909904 
   vertex 5.551115123e-17 1 2.081668171e-16 
  endloop
 endfacet
 facet normal -0.113104 0.258079 0.012814
  outer loop
   vertex -0.5896679759 0.7557228208 -0.284909904 
   vertex -0.7337649465 0.67429775 0.0831354633 
   vertex 5.551115123e-17 1 2.081668171e-16 
  endloop
 endfacet
 facet normal -0.113104 0.258079 0.012815
  outer loop
   vertex 5.551115123e-17 1 2.081668171e-16 
   vertex -0.7337649465 0.67429775 0.0831354633 
   vertex -0.1440969557 0.9185739756 0.3680450618 
  endloop
 endfacet
 facet normal -0.056552 0.129040 0.006407
  outer loop
   vertex -0.7337649465 0.67429775 0.0831354633 
   vertex -0.510979414 0.7557228208 0.4096131325 
   vertex -0.1440969557 0.9185739756 0.3680450618 
  endloop
 endfacet
 facet normal -0.031566 0.096181 0.098200
  outer loop
   vertex -0.2654789388 0.3293731511 0.9061096907 
   vertex 0.101403527 0.4922242761 0.8645416498 
   vertex -0.5716699362 0.4611224234 0.6786444783 
  endloop
 endfacet
 facet normal -0.063133 0.192360 0.196400
  outer loop
   vertex -0.5716699362 0.4611224234 0.6786444783 
   vertex 0.101403527 0.4922242761 0.8645416498 
   vertex -0.510979414 0.7557228208 0.4096131325 
  endloop
 endfacet
 facet normal -0.063133 0.192361 0.196400
  outer loop
   vertex -0.510979414 0.7557228208 0.4096131325 
   vertex 0.101403527 0.4922242761 0.8645416498 
   vertex -0.1440969557 0.9185739756 0.3680450618 
  endloop
 endfacet
 facet normal -0.031566 0.096181 0.098200
  outer loop
   vertex 0.101403527 0.4922242761 0.8645416498 
   vertex 0.1620949954 0.7868247032 0.5955092907 
   vertex -0.1440969557 0.9185739756 0.3680450618 
  endloop
 endfacet
 facet normal -0.081044 0.010154 0.114975
  outer loop
   vertex -0.7860685587 -0.1976238936 0.5856963992 
   vertex -0.4798775613 -0.3293731511 0.8131606579 
   vertex -0.8319647312 0.1976238936 0.5184388161 
  endloop
 endfacet
 facet normal -0.162087 0.020308 0.229950
  outer loop
   vertex -0.4798775613 -0.3293731511 0.8131606579 
   vertex -0.2195817828 -0.06587462872 0.9733672738 
   vertex -0.8319647312 0.1976238936 0.5184388161 
  endloop
 endfacet
 facet normal -0.162087 0.020308 0.229949
  outer loop
   vertex -0.8319647312 0.1976238936 0.5184388161 
   vertex -0.2195817828 -0.06587462872 0.9733672738 
   vertex -0.5716699362 0.4611224234 0.6786444783 
  endloop
 endfacet
 facet normal -0.081044 0.010154 0.114974
  outer loop
   vertex -0.2195817828 -0.06587462872 0.9733672738 
   vertex -0.2654789388 0.3293731511 0.9061096907 
   vertex -0.5716699362 0.4611224234 0.6786444783 
  endloop
 endfacet
 facet normal -0.118086 0.079750 0.060691
  outer loop
   vertex -0.510979414 0.7557228208 0.4096131325 
   vertex -0.7337649465 0.67429775 0.0831354633 
   vertex -0.5716699362 0.4611224234 0.6786444783 
  endloop
 endfacet
 facet normal -0.191068 0.129039 0.098200
  outer loop
   vertex -0.7337649465 0.67429775 0.0831354633 
   vertex -0.9321449399 0.3293731511 0.1503937244 
   vertex -0.5716699362 0.4611224234 0.6786444783 
  endloop
 endfacet
 facet normal -0.118086 0.079751 0.060691
  outer loop
   vertex -0.9321449399 0.3293731511 0.1503937244 
   vertex -0.8319647312 0.1976238936 0.5184388161 
   vertex -0.5716699362 0.4611224234 0.6786444783 
  endloop
 endfacet
 facet normal -0.136608 -0.010153 0.033547
  outer loop
   vertex -0.9864250422 0.06587462872 -0.1503937244 
   vertex -0.9405328035 -0.3293731511 -0.0831354633 
   vertex -0.9321449399 0.3293731511 0.1503937244 
  endloop
 endfacet
 facet normal -0.273216 -0.020308 0.067098
  outer loop
   vertex -0.9321449399 0.3293731511 0.1503937244 
   vertex -0.9405328035 -0.3293731511 -0.0831354633 
   vertex -0.8319647312 0.1976238936 0.5184388161 
  endloop
 endfacet
 facet normal -0.273215 -0.020308 0.067098
  outer loop
   vertex -0.8319647312 0.1976238936 0.5184388161 
   vertex -0.9405328035 -0.3293731511 -0.0831354633 
   vertex -0.7860685587 -0.1976238936 0.5856963992 
  endloop
 endfacet
 facet normal -0.136608 -0.010154 0.033549
  outer loop
   vertex -0.9405328035 -0.3293731511 -0.0831354633 
   vertex -0.8403525949 -0.4611224234 0.284909904 
   vertex -0.7860685587 -0.1976238936 0.5856963992 
  endloop
 endfacet
 facet normal -0.099565 -0.079751 0.087833
  outer loop
   vertex -0.3449245691 -0.67429775 0.652954936 
   vertex -0.4798775613 -0.3293731511 0.8131606579 
   vertex -0.5677101016 -0.7557228208 0.3264769912 
  endloop
 endfacet
 facet normal -0.161099 -0.129040 0.142117
  outer loop
   vertex -0.5677101016 -0.7557228208 0.3264769912 
   vertex -0.4798775613 -0.3293731511 0.8131606579 
   vertex -0.8403525949 -0.4611224234 0.284909904 
  endloop
 endfacet
 facet normal -0.099565 -0.079750 0.087833
  outer loop
   vertex -0.8403525949 -0.4611224234 0.284909904 
   vertex -0.4798775613 -0.3293731511 0.8131606579 
   vertex -0.7860685587 -0.1976238936 0.5856963992 
  endloop
 endfacet
 facet normal -0.139993 -0.026584 -0.060690
  outer loop
   vertex -0.8423320055 0.1473006904 -0.5184388161 
   vertex -0.7073790431 -0.1976238936 -0.6786444783 
   vertex -0.9864250422 0.06587462872 -0.1503937244 
  endloop
 endfacet
 facet normal -0.226512 -0.043012 -0.098199
  outer loop
   vertex -0.7073790431 -0.1976238936 -0.6786444783 
   vertex -0.768070519 -0.4922242761 -0.4096131325 
   vertex -0.9864250422 0.06587462872 -0.1503937244 
  endloop
 endfacet
 facet normal -0.139993 -0.026582 -0.060692
  outer loop
   vertex -0.768070519 -0.4922242761 -0.4096131325 
   vertex -0.9405328035 -0.3293731511 -0.0831354633 
   vertex -0.9864250422 0.06587462872 -0.1503937244 
  endloop
 endfacet
 facet normal -0.067011 -0.075872 -0.098200
  outer loop
   vertex -0.768070519 -0.4922242761 -0.4096131325 
   vertex -0.7073790431 -0.1976238936 -0.6786444783 
   vertex -0.4954279959 -0.7868247032 -0.3680450618 
  endloop
 endfacet
 facet normal -0.134023 -0.151745 -0.196400
  outer loop
   vertex -0.7073790431 -0.1976238936 -0.6786444783 
   vertex -0.3740460277 -0.1976238936 -0.9061096907 
   vertex -0.4954279959 -0.7868247032 -0.3680450618 
  endloop
 endfacet
 facet normal -0.134022 -0.151745 -0.196400
  outer loop
   vertex -0.4954279959 -0.7868247032 -0.3680450618 
   vertex -0.3740460277 -0.1976238936 -0.9061096907 
   vertex -0.1620949954 -0.7868247032 -0.5955092907 
  endloop
 endfacet
 facet normal -0.067011 -0.075872 -0.098200
  outer loop
   vertex -0.3740460277 -0.1976238936 -0.9061096907 
   vertex -0.101403527 -0.4922242761 -0.8645416498 
   vertex -0.1620949954 -0.7868247032 -0.5955092907 
  endloop
 endfacet
 facet normal 0.031566 -0.096180 -0.098200
  outer loop
   vertex 0.510979414 -0.7557228208 -0.4096131325 
   vertex 0.1440969557 -0.9185739756 -0.3680450618 
   vertex 0.5716699362 -0.4611224234 -0.6786444783 
  endloop
 endfacet
 facet normal 0.063133 -0.192361 -0.196400
  outer loop
   vertex 0.5716699362 -0.4611224234 -0.6786444783 
   vertex 0.1440969557 -0.9185739756 -0.3680450618 
   vertex 0.2654789388 -0.3293731511 -0.9061096907 
  endloop
 endfacet
 facet normal 0.063132 -0.192361 -0.196401
  outer loop
   vertex 0.1440969557 -0.9185739756 -0.3680450618 
   vertex -0.1620949954 -0.7868247032 -0.5955092907 
   vertex 0.2654789388 -0.3293731511 -0.9061096907 
  endloop
 endfacet
 facet normal 0.031566 -0.096180 -0.098200
  outer loop
   vertex -0.1620949954 -0.7868247032 -0.5955092907 
   vertex -0.101403527 -0.4922242761 -0.8645416498 
   vertex 0.2654789388 -0.3293731511 -0.9061096907 
  endloop
 endfacet
 facet normal -0.102949 -0.096180 -0.006407
  outer loop
   vertex -0.5677101016 -0.7557228208 0.3264769912 
   vertex -0.8403525949 -0.4611224234 0.284909904 
   vertex -0.3952477872 -0.9185739756 -2.113476508e-16 
  endloop
 endfacet
 facet normal -0.205900 -0.192361 -0.012815
  outer loop
   vertex -0.8403525949 -0.4611224234 0.284909904 
   vertex -0.9405328035 -0.3293731511 -0.0831354633 
   vertex -0.3952477872 -0.9185739756 -2.113476508e-16 
  endloop
 endfacet
 facet normal -0.205899 -0.192361 -0.012815
  outer loop
   vertex -0.3952477872 -0.9185739756 -2.113476508e-16 
   vertex -0.9405328035 -0.3293731511 -0.0831354633 
   vertex -0.4954279959 -0.7868247032 -0.3680450618 
  endloop
 endfacet
 facet normal -0.102950 -0.096181 -0.006407
  outer loop
   vertex -0.4954279959 -0.7868247032 -0.3680450618 
   vertex -0.9405328035 -0.3293731511 -0.0831354633 
   vertex -0.768070519 -0.4922242761 -0.4096131325 
  endloop
 endfacet
 facet normal 0.099565 0.079751 -0.087833
  outer loop
   vertex 0.5677101016 0.7557228208 -0.3264769912 
   vertex 0.8403525949 0.4611224234 -0.284909904 
   vertex 0.3449245691 0.67429775 -0.652954936 
  endloop
 endfacet
 facet normal 0.161100 0.129039 -0.142117
  outer loop
   vertex 0.3449245691 0.67429775 -0.652954936 
   vertex 0.8403525949 0.4611224234 -0.284909904 
   vertex 0.4798775613 0.3293731511 -0.8131606579 
  endloop
 endfacet
 facet normal 0.099565 0.079750 -0.087833
  outer loop
   vertex 0.8403525949 0.4611224234 -0.284909904 
   vertex 0.7860685587 0.1976238936 -0.5856963992 
   vertex 0.4798775613 0.3293731511 -0.8131606579 
  endloop
 endfacet
 facet normal 0.013045 0.063321 -0.125342
  outer loop
   vertex -0.05032379925 0.7557228208 -0.652954936 
   vertex 0.3449245691 0.67429775 -0.652954936 
   vertex -0.3106189966 0.4922242761 -0.8131606579 
  endloop
 endfacet
 facet normal 0.026090 0.126642 -0.250684
  outer loop
   vertex 0.3449245691 0.67429775 -0.652954936 
   vertex 0.4798775613 0.3293731511 -0.8131606579 
   vertex -0.3106189966 0.4922242761 -0.8131606579 
  endloop
 endfacet
 facet normal 0.026090 0.126643 -0.250684
  outer loop
   vertex 0.4798775613 0.3293731511 -0.8131606579 
   vertex 0.2195817828 0.06587462872 -0.9733672738 
   vertex -0.3106189966 0.4922242761 -0.8131606579 
  endloop
 endfacet
 facet normal 0.013045 0.063321 -0.125342
  outer loop
   vertex 0.2195817828 0.06587462872 -0.9733672738 
   vertex -0.1756660044 0.1473006904 -0.9733672738 
   vertex -0.3106189966 0.4922242761 -0.8131606579 
  endloop
 endfacet
 facet normal 0.081043 -0.010154 -0.114974
  outer loop
   vertex 0.8319647312 -0.1976238936 -0.5184388161 
   vertex 0.5716699362 -0.4611224234 -0.6786444783 
   vertex 0.7860685587 0.1976238936 -0.5856963992 
  endloop
 endfacet
 facet normal 0.162087 -0.020308 -0.229949
  outer loop
   vertex 0.7860685587 0.1976238936 -0.5856963992 
   vertex 0.5716699362 -0.4611224234 -0.6786444783 
   vertex 0.4798775613 0.3293731511 -0.8131606579 
  endloop
 endfacet
 facet normal 0.162087 -0.020308 -0.229950
  outer loop
   vertex 0.4798775613 0.3293731511 -0.8131606579 
   vertex 0.5716699362 -0.4611224234 -0.6786444783 
   vertex 0.2195817828 0.06587462872 -0.9733672738 
  endloop
 endfacet
 facet normal 0.081044 -0.010154 -0.114974
  outer loop
   vertex 0.5716699362 -0.4611224234 -0.6786444783 
   vertex 0.2654789388 -0.3293731511 -0.9061096907 
   vertex 0.2195817828 0.06587462872 -0.9733672738 
  endloop
 endfacet
 facet normal -0.005477 -0.026583 -0.152484
  outer loop
   vertex -0.1756660044 0.1473006904 -0.9733672738 
   vertex 0.2195817828 0.06587462872 -0.9733672738 
   vertex -0.3740460277 -0.1976238936 -0.9061096907 
  endloop
 endfacet
 facet normal -0.008861 -0.043013 -0.246724
  outer loop
   vertex 0.2195817828 0.06587462872 -0.9733672738 
   vertex 0.2654789388 -0.3293731511 -0.9061096907 
   vertex -0.3740460277 -0.1976238936 -0.9061096907 
  endloop
 endfacet
 facet normal -0.005477 -0.026584 -0.152484
  outer loop
   vertex 0.2654789388 -0.3293731511 -0.9061096907 
   vertex -0.101403527 -0.4922242761 -0.8645416498 
   vertex -0.3740460277 -0.1976238936 -0.9061096907 
  endloop
 endfacet
 facet normal 0.118087 -0.079751 -0.060691
  outer loop
   vertex 0.9321449399 -0.3293731511 -0.1503937244 
   vertex 0.7337649465 -0.67429775 -0.0831354633 
   vertex 0.8319647312 -0.1976238936 -0.5184388161 
  endloop
 endfacet
 facet normal 0.191068 -0.129039 -0.098200
  outer loop
   vertex 0.7337649465 -0.67429775 -0.0831354633 
   vertex 0.510979414 -0.7557228208 -0.4096131325 
   vertex 0.8319647312 -0.1976238936 -0.5184388161 
  endloop
 endfacet
 facet normal 0.118086 -0.079750 -0.060691
  outer loop
   vertex 0.510979414 -0.7557228208 -0.4096131325 
   vertex 0.5716699362 -0.4611224234 -0.6786444783 
   vertex 0.8319647312 -0.1976238936 -0.5184388161 
  endloop
 endfacet
 facet normal 0.121471 -0.063319 0.033548
  outer loop
   vertex 0.9864250422 -0.06587462872 0.1503937244 
   vertex 0.8423320055 -0.1473006904 0.5184388161 
   vertex 0.9321449399 -0.3293731511 -0.1503937244 
  endloop
 endfacet
 facet normal 0.242943 -0.126642 0.067098
  outer loop
   vertex 0.9321449399 -0.3293731511 -0.1503937244 
   vertex 0.8423320055 -0.1473006904 0.5184388161 
   vertex 0.7337649465 -0.67429775 -0.0831354633 
  endloop
 endfacet
 facet normal 0.242942 -0.126643 0.067099
  outer loop
   vertex 0.7337649465 -0.67429775 -0.0831354633 
   vertex 0.8423320055 -0.1473006904 0.5184388161 
   vertex 0.5896679759 -0.7557228208 0.284909904 
  endloop
 endfacet
 facet normal 0.121471 -0.063321 0.033549
  outer loop
   vertex 0.8423320055 -0.1473006904 0.5184388161 
   vertex 0.6439520121 -0.4922242761 0.5856963992 
   vertex 0.5896679759 -0.7557228208 0.284909904 
  endloop
 endfacet
 facet normal 0.059937 -0.112610 0.087833
  outer loop
   vertex 0.6439520121 -0.4922242761 0.5856963992 
   vertex 0.3106189966 -0.4922242761 0.8131606579 
   vertex 0.5896679759 -0.7557228208 0.284909904 
  endloop
 endfacet
 facet normal 0.096979 -0.182206 0.142116
  outer loop
   vertex 0.3106189966 -0.4922242761 0.8131606579 
   vertex 0.05032379925 -0.7557228208 0.652954936 
   vertex 0.5896679759 -0.7557228208 0.284909904 
  endloop
 endfacet
 facet normal 0.059937 -0.112610 0.087833
  outer loop
   vertex 0.05032379925 -0.7557228208 0.652954936 
   vertex 0.2227855027 -0.9185739756 0.3264769912 
   vertex 0.5896679759 -0.7557228208 0.284909904 
  endloop
 endfacet
 facet normal 0.056552 -0.129040 -0.006407
  outer loop
   vertex 0.7337649465 -0.67429775 -0.0831354633 
   vertex 0.5896679759 -0.7557228208 0.284909904 
   vertex 0.510979414 -0.7557228208 -0.4096131325 
  endloop
 endfacet
 facet normal 0.113104 -0.258079 -0.012815
  outer loop
   vertex 0.5896679759 -0.7557228208 0.284909904 
   vertex 0.2227855027 -0.9185739756 0.3264769912 
   vertex 0.510979414 -0.7557228208 -0.4096131325 
  endloop
 endfacet
 facet normal 0.113104 -0.258079 -0.012815
  outer loop
   vertex 0.510979414 -0.7557228208 -0.4096131325 
   vertex 0.2227855027 -0.9185739756 0.3264769912 
   vertex 0.1440969557 -0.9185739756 -0.3680450618 
  endloop
 endfacet
 facet normal 0.056552 -0.129039 -0.006407
  outer loop
   vertex 0.2227855027 -0.9185739756 0.3264769912 
   vertex 3.851859889e-34 -1 -2.255140519e-16 
   vertex 0.1440969557 -0.9185739756 -0.3680450618 
  endloop
 endfacet
 facet normal -0.029968 -0.145469 -0.043916
  outer loop
   vertex -0.4954279959 -0.7868247032 -0.3680450618 
   vertex -0.1620949954 -0.7868247032 -0.5955092907 
   vertex -0.3952477872 -0.9185739756 -2.094495559e-16 
  endloop
 endfacet
 facet normal -0.048490 -0.235374 -0.071058
  outer loop
   vertex -0.1620949954 -0.7868247032 -0.5955092907 
   vertex 0.1440969557 -0.9185739756 -0.3680450618 
   vertex -0.3952477872 -0.9185739756 -2.094495559e-16 
  endloop
 endfacet
 facet normal -0.029968 -0.145469 -0.043917
  outer loop
   vertex 0.1440969557 -0.9185739756 -0.3680450618 
   vertex 3.851859889e-34 -1 -2.255140519e-16 
   vertex -0.3952477872 -0.9185739756 -2.094495559e-16 
  endloop
 endfacet
 facet normal 0.005477 0.026584 0.152484
  outer loop
   vertex 0.101403527 0.4922242761 0.8645416498 
   vertex -0.2654789388 0.3293731511 0.9061096907 
   vertex 0.3740460277 0.1976238936 0.9061096907 
  endloop
 endfacet
 facet normal 0.008861 0.043013 0.246724
  outer loop
   vertex -0.2654789388 0.3293731511 0.9061096907 
   vertex -0.2195817828 -0.06587462872 0.9733672738 
   vertex 0.3740460277 0.1976238936 0.9061096907 
  endloop
 endfacet
 facet normal 0.005477 0.026583 0.152484
  outer loop
   vertex -0.2195817828 -0.06587462872 0.9733672738 
   vertex 0.1756660044 -0.1473006904 0.9733672738 
   vertex 0.3740460277 0.1976238936 0.9061096907 
  endloop
 endfacet
 facet normal -0.013045 -0.063321 0.125342
  outer loop
   vertex 0.1756660044 -0.1473006904 0.9733672738 
   vertex -0.2195817828 -0.06587462872 0.9733672738 
   vertex 0.3106189966 -0.4922242761 0.8131606579 
  endloop
 endfacet
 facet normal -0.026090 -0.126643 0.250684
  outer loop
   vertex -0.2195817828 -0.06587462872 0.9733672738 
   vertex -0.4798775613 -0.3293731511 0.8131606579 
   vertex 0.3106189966 -0.4922242761 0.8131606579 
  endloop
 endfacet
 facet normal -0.026090 -0.126642 0.250684
  outer loop
   vertex -0.4798775613 -0.3293731511 0.8131606579 
   vertex -0.3449245691 -0.67429775 0.652954936 
   vertex 0.3106189966 -0.4922242761 0.8131606579 
  endloop
 endfacet
 facet normal -0.013045 -0.063321 0.125342
  outer loop
   vertex -0.3449245691 -0.67429775 0.652954936 
   vertex 0.05032379925 -0.7557228208 0.652954936 
   vertex 0.3106189966 -0.4922242761 0.8131606579 
  endloop
 endfacet
 facet normal -0.026584 -0.129039 0.050324
  outer loop
   vertex -0.3952477872 -0.9185739756 -3.10466639e-16 
   vertex 2.775557562e-17 -1 -3.330669074e-16 
   vertex -0.5677101016 -0.7557228208 0.3264769912 
  endloop
 endfacet
 facet normal -0.053167 -0.258079 0.100648
  outer loop
   vertex 2.775557562e-17 -1 -3.330669074e-16 
   vertex 0.2227855027 -0.9185739756 0.3264769912 
   vertex -0.5677101016 -0.7557228208 0.3264769912 
  endloop
 endfacet
 facet normal -0.053167 -0.258079 0.100647
  outer loop
   vertex -0.5677101016 -0.7557228208 0.3264769912 
   vertex 0.2227855027 -0.9185739756 0.3264769912 
   vertex -0.3449245691 -0.67429775 0.652954936 
  endloop
 endfacet
 facet normal -0.026583 -0.129040 0.050324
  outer loop
   vertex 0.05032379925 -0.7557228208 0.652954936 
   vertex -0.3449245691 -0.67429775 0.652954936 
   vertex 0.2227855027 -0.9185739756 0.3264769912 
  endloop
 endfacet
 facet normal 0.067011 0.075872 0.098200
  outer loop
   vertex 0.1620949954 0.7868247032 0.5955092907 
   vertex 0.101403527 0.4922242761 0.8645416498 
   vertex 0.4954279959 0.7868247032 0.3680450618 
  endloop
 endfacet
 facet normal 0.134022 0.151745 0.196400
  outer loop
   vertex 0.4954279959 0.7868247032 0.3680450618 
   vertex 0.101403527 0.4922242761 0.8645416498 
   vertex 0.768070519 0.4922242761 0.4096131325 
  endloop
 endfacet
 facet normal 0.134022 0.151745 0.196400
  outer loop
   vertex 0.101403527 0.4922242761 0.8645416498 
   vertex 0.3740460277 0.1976238936 0.9061096907 
   vertex 0.768070519 0.4922242761 0.4096131325 
  endloop
 endfacet
 facet normal 0.067011 0.075872 0.098200
  outer loop
   vertex 0.3740460277 0.1976238936 0.9061096907 
   vertex 0.7073790431 0.1976238936 0.6786444783 
   vertex 0.768070519 0.4922242761 0.4096131325 
  endloop
 endfacet
 facet normal 0.139993 0.026584 0.060690
  outer loop
   vertex 0.8423320055 -0.1473006904 0.5184388161 
   vertex 0.9864250422 -0.06587462872 0.1503937244 
   vertex 0.7073790431 0.1976238936 0.6786444783 
  endloop
 endfacet
 facet normal 0.226512 0.043012 0.098199
  outer loop
   vertex 0.7073790431 0.1976238936 0.6786444783 
   vertex 0.9864250422 -0.06587462872 0.1503937244 
   vertex 0.768070519 0.4922242761 0.4096131325 
  endloop
 endfacet
 facet normal 0.139993 0.026582 0.060692
  outer loop
   vertex 0.9864250422 -0.06587462872 0.1503937244 
   vertex 0.9405328035 0.3293731511 0.0831354633 
   vertex 0.768070519 0.4922242761 0.4096131325 
  endloop
 endfacet
 facet normal 0.078458 -0.022705 0.114974
  outer loop
   vertex 0.3106189966 -0.4922242761 0.8131606579 
   vertex 0.6439520121 -0.4922242761 0.5856963992 
   vertex 0.1756660044 -0.1473006904 0.9733672738 
  endloop
 endfacet
 facet normal 0.156916 -0.045410 0.229949
  outer loop
   vertex 0.6439520121 -0.4922242761 0.5856963992 
   vertex 0.8423320055 -0.1473006904 0.5184388161 
   vertex 0.1756660044 -0.1473006904 0.9733672738 
  endloop
 endfacet
 facet normal 0.156916 -0.045410 0.229950
  outer loop
   vertex 0.1756660044 -0.1473006904 0.9733672738 
   vertex 0.8423320055 -0.1473006904 0.5184388161 
   vertex 0.3740460277 0.1976238936 0.9061096907 
  endloop
 endfacet
 facet normal 0.078458 -0.022705 0.114975
  outer loop
   vertex 0.7073790431 0.1976238936 0.6786444783 
   vertex 0.3740460277 0.1976238936 0.9061096907 
   vertex 0.8423320055 -0.1473006904 0.5184388161 
  endloop
 endfacet
endsolid
