solid
 facet normal 0.000000 0.000000 1.000000
  outer loop
   vertex -0.5 -0.5 0.5 
   vertex -0.25 -0.5 0.5 
   vertex -0.5 -0.25 0.5 
  endloop
 endfacet
 facet normal 0.000000 0.000000 -1.000000
  outer loop
   vertex -0.5 -0.25 -0.5 
   vertex -0.25 -0.5 -0.5 
   vertex -0.5 -0.5 -0.5 
  endloop
 endfacet
 facet normal 0.000000 -1.000000 0.000000
  outer loop
   vertex -0.5 -0.5 -0.5 
   vertex -0.25 -0.5 -0.5 
   vertex -0.5 -0.5 -0.25 
  endloop
 endfacet
 facet normal 0.000000 -1.000000 0.000000
  outer loop
   vertex -0.5 -0.5 0.25 
   vertex -0.25 -0.5 0.5 
   vertex -0.5 -0.5 0.5 
  endloop
 endfacet
 facet normal -1.000000 0.000000 0.000000
  outer loop
   vertex -0.5 -0.5 -0.5 
   vertex -0.5 -0.5 -0.25 
   vertex -0.5 -0.25 -0.5 
  endloop
 endfacet
 facet normal -1.000000 0.000000 0.000000
  outer loop
   vertex -0.5 -0.5 0.25 
   vertex -0.5 -0.5 0.5 
   vertex -0.5 -0.25 0.5 
  endloop
 endfacet
 facet normal 0.000000 1.000000 0.000000
  outer loop
   vertex -0.5 0.5 0.5 
   vertex -0.25 0.5 0.5 
   vertex -0.5 0.5 0.25 
  endloop
 endfacet
 facet normal 0.000000 0.000000 1.000000
  outer loop
   vertex -0.5 0.25 0.5 
   vertex -0.25 0.5 0.5 
   vertex -0.5 0.5 0.5 
  endloop
 endfacet
 facet normal -1.000000 0.000000 0.000000
  outer loop
   vertex -0.5 0.5 0.25 
   vertex -0.5 0.25 0.5 
   vertex -0.5 0.5 0.5 
  endloop
 endfacet
 facet normal -1.000000 0.000000 0.000000
  outer loop
   vertex -0.5 0.25 -0.5 
   vertex -0.5 0.5 -0.25 
   vertex -0.5 0.5 -0.5 
  endloop
 endfacet
 facet normal 0.000000 0.000000 -1.000000
  outer loop
   vertex -0.5 0.5 -0.5 
   vertex -0.25 0.5 -0.5 
   vertex -0.5 0.25 -0.5 
  endloop
 endfacet
 facet normal 0.000000 1.000000 0.000000
  outer loop
   vertex -0.5 0.5 -0.25 
   vertex -0.25 0.5 -0.5 
   vertex -0.5 0.5 -0.5 
  endloop
 endfacet
 facet normal 0.000000 1.000000 0.000000
  outer loop
   vertex 0.25 0.5 -0.5 
   vertex 0.5 0.5 -0.25 
   vertex 0.5 0.5 -0.5 
  endloop
 endfacet
 facet normal 0.000000 0.000000 -1.000000
  outer loop
   vertex 0.25 0.5 -0.5 
   vertex 0.5 0.5 -0.5 
   vertex 0.5 0.25 -0.5 
  endloop
 endfacet
 facet normal 1.000000 0.000000 0.000000
  outer loop
   vertex 0.5 0.5 -0.25 
   vertex 0.5 0.25 -0.5 
   vertex 0.5 0.5 -0.5 
  endloop
 endfacet
 facet normal 1.000000 0.000000 0.000000
  outer loop
   vertex 0.5 0.25 0.5 
   vertex 0.5 0.5 0.25 
   vertex 0.5 0.5 0.5 
  endloop
 endfacet
 facet normal 0.000000 0.000000 1.000000
  outer loop
   vertex 0.25 0.5 0.5 
   vertex 0.5 0.25 0.5 
   vertex 0.5 0.5 0.5 
  endloop
 endfacet
 facet normal 0.000000 1.000000 0.000000
  outer loop
   vertex 0.25 0.5 0.5 
   vertex 0.5 0.5 0.5 
   vertex 0.5 0.5 0.25 
  endloop
 endfacet
 facet normal 0.000000 -1.000000 0.000000
  outer loop
   vertex 0.25 -0.5 0.5 
   vertex 0.5 -0.5 0.25 
   vertex 0.5 -0.5 0.5 
  endloop
 endfacet
 facet normal 0.000000 0.000000 1.000000
  outer loop
   vertex 0.25 -0.5 0.5 
   vertex 0.5 -0.5 0.5 
   vertex 0.5 -0.25 0.5 
  endloop
 endfacet
 facet normal 1.000000 0.000000 0.000000
  outer loop
   vertex 0.5 -0.5 0.5 
   vertex 0.5 -0.5 0.25 
   vertex 0.5 -0.25 0.5 
  endloop
 endfacet
 facet normal 1.000000 0.000000 0.000000
  outer loop
   vertex 0.5 -0.5 -0.25 
   vertex 0.5 -0.5 -0.5 
   vertex 0.5 -0.25 -0.5 
  endloop
 endfacet
 facet normal 0.000000 0.000000 -1.000000
  outer loop
   vertex 0.25 -0.5 -0.5 
   vertex 0.5 -0.25 -0.5 
   vertex 0.5 -0.5 -0.5 
  endloop
 endfacet
 facet normal 0.000000 -1.000000 0.000000
  outer loop
   vertex 0.25 -0.5 -0.5 
   vertex 0.5 -0.5 -0.5 
   vertex 0.5 -0.5 -0.25 
  endloop
 endfacet
endsolid
