solid
 facet normal 0.000000 1.000000 0.000000
  outer loop
   vertex 5 10 -10 
   vertex 10 10 -5 
   vertex 10 10 -10 
  endloop
 endfacet
 facet normal 0.000000 0.000000 -1.000000
  outer loop
   vertex 5 10 -10 
   vertex 10 10 -10 
   vertex 10 5 -10 
  endloop
 endfacet
 facet normal 1.000000 0.000000 0.000000
  outer loop
   vertex 10 10 -5 
   vertex 10 5 -10 
   vertex 10 10 -10 
  endloop
 endfacet
 facet normal -0.577350 -0.577350 0.577350
  outer loop
   vertex 5 10 -10 
   vertex 10 5 -10 
   vertex 10 10 -5 
  endloop
 endfacet
 facet normal 0.000000 1.000000 0.000000
  outer loop
   vertex -5 10 -10 
   vertex -10 10 -10 
   vertex -10 10 -5 
  endloop
 endfacet
 facet normal 0.000000 0.000000 -1.000000
  outer loop
   vertex -5 10 -10 
   vertex -10 5 -10 
   vertex -10 10 -10 
  endloop
 endfacet
 facet normal -1.000000 0.000000 0.000000
  outer loop
   vertex -10 10 -5 
   vertex -10 10 -10 
   vertex -10 5 -10 
  endloop
 endfacet
 facet normal 0.577350 -0.577350 0.577350
  outer loop
   vertex -5 10 -10 
   vertex -10 10 -5 
   vertex -10 5 -10 
  endloop
 endfacet
 facet normal 0.000000 1.000000 0.000000
  outer loop
   vertex 5 10 10 
   vertex 10 10 10 
   vertex 10 10 5 
  endloop
 endfacet
 facet normal 0.000000 0.000000 1.000000
  outer loop
   vertex 5 10 10 
   vertex 10 5 10 
   vertex 10 10 10 
  endloop
 endfacet
 facet normal 1.000000 0.000000 0.000000
  outer loop
   vertex 10 10 5 
   vertex 10 10 10 
   vertex 10 5 10 
  endloop
 endfacet
 facet normal -0.577350 -0.577350 -0.577350
  outer loop
   vertex 5 10 10 
   vertex 10 10 5 
   vertex 10 5 10 
  endloop
 endfacet
 facet normal 0.000000 1.000000 0.000000
  outer loop
   vertex -5 10 10 
   vertex -10 10 5 
   vertex -10 10 10 
  endloop
 endfacet
 facet normal 0.000000 0.000000 1.000000
  outer loop
   vertex -5 10 10 
   vertex -10 10 10 
   vertex -10 5 10 
  endloop
 endfacet
 facet normal -1.000000 0.000000 0.000000
  outer loop
   vertex -10 10 5 
   vertex -10 5 10 
   vertex -10 10 10 
  endloop
 endfacet
 facet normal 0.577350 -0.577350 -0.577350
  outer loop
   vertex -5 10 10 
   vertex -10 5 10 
   vertex -10 10 5 
  endloop
 endfacet
 facet normal 0.000000 -1.000000 0.000000
  outer loop
   vertex 5 -10 -10 
   vertex 10 -10 -10 
   vertex 10 -10 -5 
  endloop
 endfacet
 facet normal 0.000000 0.000000 -1.000000
  outer loop
   vertex 5 -10 -10 
   vertex 10 -5 -10 
   vertex 10 -10 -10 
  endloop
 endfacet
 facet normal 1.000000 0.000000 0.000000
  outer loop
   vertex 10 -10 -5 
   vertex 10 -10 -10 
   vertex 10 -5 -10 
  endloop
 endfacet
 facet normal -0.577350 0.577350 0.577350
  outer loop
   vertex 5 -10 -10 
   vertex 10 -10 -5 
   vertex 10 -5 -10 
  endloop
 endfacet
 facet normal 0.000000 -1.000000 0.000000
  outer loop
   vertex -5 -10 -10 
   vertex -10 -10 -5 
   vertex -10 -10 -10 
  endloop
 endfacet
 facet normal 0.000000 0.000000 -1.000000
  outer loop
   vertex -5 -10 -10 
   vertex -10 -10 -10 
   vertex -10 -5 -10 
  endloop
 endfacet
 facet normal -1.000000 0.000000 0.000000
  outer loop
   vertex -10 -10 -5 
   vertex -10 -5 -10 
   vertex -10 -10 -10 
  endloop
 endfacet
 facet normal 0.577350 0.577350 0.577350
  outer loop
   vertex -5 -10 -10 
   vertex -10 -5 -10 
   vertex -10 -10 -5 
  endloop
 endfacet
 facet normal 0.000000 -1.000000 0.000000
  outer loop
   vertex 5 -10 10 
   vertex 10 -10 5 
   vertex 10 -10 10 
  endloop
 endfacet
 facet normal 0.000000 0.000000 1.000000
  outer loop
   vertex 5 -10 10 
   vertex 10 -10 10 
   vertex 10 -5 10 
  endloop
 endfacet
 facet normal 1.000000 0.000000 0.000000
  outer loop
   vertex 10 -10 5 
   vertex 10 -5 10 
   vertex 10 -10 10 
  endloop
 endfacet
 facet normal -0.577350 0.577350 -0.577350
  outer loop
   vertex 5 -10 10 
   vertex 10 -5 10 
   vertex 10 -10 5 
  endloop
 endfacet
 facet normal 0.000000 -1.000000 0.000000
  outer loop
   vertex -5 -10 10 
   vertex -10 -10 10 
   vertex -10 -10 5 
  endloop
 endfacet
 facet normal 0.000000 0.000000 1.000000
  outer loop
   vertex -5 -10 10 
   vertex -10 -5 10 
   vertex -10 -10 10 
  endloop
 endfacet
 facet normal -1.000000 0.000000 0.000000
  outer loop
   vertex -10 -10 5 
   vertex -10 -10 10 
   vertex -10 -5 10 
  endloop
 endfacet
 facet normal 0.577350 0.577350 -0.577350
  outer loop
   vertex -5 -10 10 
   vertex -10 -10 5 
   vertex -10 -5 10 
  endloop
 endfacet
endsolid
