solid
 facet normal 0.009464 -0.031211 -0.009464
  outer loop
   vertex 0.2241438627 -0.9659258127 -0.1294095218 
   vertex 0.1294095218 -0.9659258127 -0.2241438627 
   vertex 0.4330126941 -0.8660253882 -0.25 
  endloop
 endfacet
 facet normal 0.018283 -0.060295 -0.018283
  outer loop
   vertex 0.4330126941 -0.8660253882 -0.25 
   vertex 0.1294095218 -0.9659258127 -0.2241438627 
   vertex 0.25 -0.8660253882 -0.4330126941 
  endloop
 endfacet
 facet normal 0.003464 -0.031211 -0.012928
  outer loop
   vertex 0.1294095218 -0.9659258127 -0.2241438627 
   vertex 0 -0.9659258127 -0.2588190436 
   vertex 0.25 -0.8660253882 -0.4330126941 
  endloop
 endfacet
 facet normal 0.006692 -0.060295 -0.024975
  outer loop
   vertex 0.25 -0.8660253882 -0.4330126941 
   vertex 0 -0.9659258127 -0.2588190436 
   vertex 0 -0.8660253882 -0.5 
  endloop
 endfacet
 facet normal -0.003464 -0.031211 -0.012928
  outer loop
   vertex 0 -0.9659258127 -0.2588190436 
   vertex -0.1294095218 -0.9659258127 -0.2241438627 
   vertex 0 -0.8660253882 -0.5 
  endloop
 endfacet
 facet normal -0.006692 -0.060295 -0.024975
  outer loop
   vertex 0 -0.8660253882 -0.5 
   vertex -0.1294095218 -0.9659258127 -0.2241438627 
   vertex -0.25 -0.8660253882 -0.4330126941 
  endloop
 endfacet
 facet normal -0.009464 -0.031211 -0.009464
  outer loop
   vertex -0.1294095218 -0.9659258127 -0.2241438627 
   vertex -0.2241438627 -0.9659258127 -0.1294095218 
   vertex -0.25 -0.8660253882 -0.4330126941 
  endloop
 endfacet
 facet normal -0.018283 -0.060295 -0.018283
  outer loop
   vertex -0.25 -0.8660253882 -0.4330126941 
   vertex -0.2241438627 -0.9659258127 -0.1294095218 
   vertex -0.4330126941 -0.8660253882 -0.25 
  endloop
 endfacet
 facet normal -0.012928 -0.031211 -0.003464
  outer loop
   vertex -0.2241438627 -0.9659258127 -0.1294095218 
   vertex -0.2588190436 -0.9659258127 0 
   vertex -0.4330126941 -0.8660253882 -0.25 
  endloop
 endfacet
 facet normal -0.024975 -0.060295 -0.006692
  outer loop
   vertex -0.4330126941 -0.8660253882 -0.25 
   vertex -0.2588190436 -0.9659258127 0 
   vertex -0.5 -0.8660253882 0 
  endloop
 endfacet
 facet normal -0.012928 -0.031211 0.003464
  outer loop
   vertex -0.2588190436 -0.9659258127 0 
   vertex -0.2241438627 -0.9659258127 0.1294095218 
   vertex -0.5 -0.8660253882 0 
  endloop
 endfacet
 facet normal -0.024975 -0.060295 0.006692
  outer loop
   vertex -0.5 -0.8660253882 0 
   vertex -0.2241438627 -0.9659258127 0.1294095218 
   vertex -0.4330126941 -0.8660253882 0.25 
  endloop
 endfacet
 facet normal -0.009464 -0.031211 0.009464
  outer loop
   vertex -0.2241438627 -0.9659258127 0.1294095218 
   vertex -0.1294095218 -0.9659258127 0.2241438627 
   vertex -0.4330126941 -0.8660253882 0.25 
  endloop
 endfacet
 facet normal -0.018283 -0.060295 0.018283
  outer loop
   vertex -0.4330126941 -0.8660253882 0.25 
   vertex -0.1294095218 -0.9659258127 0.2241438627 
   vertex -0.25 -0.8660253882 0.4330126941 
  endloop
 endfacet
 facet normal -0.003464 -0.031211 0.012928
  outer loop
   vertex -0.1294095218 -0.9659258127 0.2241438627 
   vertex 0 -0.9659258127 0.2588190436 
   vertex -0.25 -0.8660253882 0.4330126941 
  endloop
 endfacet
 facet normal -0.006692 -0.060295 0.024975
  outer loop
   vertex -0.25 -0.8660253882 0.4330126941 
   vertex 0 -0.9659258127 0.2588190436 
   vertex 0 -0.8660253882 0.5 
  endloop
 endfacet
 facet normal 0.003464 -0.031211 0.012928
  outer loop
   vertex 0 -0.9659258127 0.2588190436 
   vertex 0.1294095218 -0.9659258127 0.2241438627 
   vertex 0 -0.8660253882 0.5 
  endloop
 endfacet
 facet normal 0.006692 -0.060295 0.024975
  outer loop
   vertex 0 -0.8660253882 0.5 
   vertex 0.1294095218 -0.9659258127 0.2241438627 
   vertex 0.25 -0.8660253882 0.4330126941 
  endloop
 endfacet
 facet normal 0.009464 -0.031211 0.009464
  outer loop
   vertex 0.1294095218 -0.9659258127 0.2241438627 
   vertex 0.2241438627 -0.9659258127 0.1294095218 
   vertex 0.25 -0.8660253882 0.4330126941 
  endloop
 endfacet
 facet normal 0.018283 -0.060295 0.018283
  outer loop
   vertex 0.25 -0.8660253882 0.4330126941 
   vertex 0.2241438627 -0.9659258127 0.1294095218 
   vertex 0.4330126941 -0.8660253882 0.25 
  endloop
 endfacet
 facet normal 0.012928 -0.031211 0.003464
  outer loop
   vertex 0.2241438627 -0.9659258127 0.1294095218 
   vertex 0.2588190436 -0.9659258127 0 
   vertex 0.4330126941 -0.8660253882 0.25 
  endloop
 endfacet
 facet normal 0.024975 -0.060295 0.006692
  outer loop
   vertex 0.4330126941 -0.8660253882 0.25 
   vertex 0.2588190436 -0.9659258127 0 
   vertex 0.5 -0.8660253882 0 
  endloop
 endfacet
 facet normal 0.012928 -0.031211 -0.003464
  outer loop
   vertex 0.2588190436 -0.9659258127 0 
   vertex 0.2241438627 -0.9659258127 -0.1294095218 
   vertex 0.5 -0.8660253882 0 
  endloop
 endfacet
 facet normal 0.024975 -0.060295 -0.006692
  outer loop
   vertex 0.5 -0.8660253882 0 
   vertex 0.2241438627 -0.9659258127 -0.1294095218 
   vertex 0.4330126941 -0.8660253882 -0.25 
  endloop
 endfacet
 facet normal 0.029084 -0.051777 -0.029084
  outer loop
   vertex 0.4330126941 -0.8660253882 -0.25 
   vertex 0.25 -0.8660253882 -0.4330126941 
   vertex 0.6123723984 -0.7071067691 -0.3535533845 
  endloop
 endfacet
 facet normal 0.041131 -0.073223 -0.041131
  outer loop
   vertex 0.6123723984 -0.7071067691 -0.3535533845 
   vertex 0.25 -0.8660253882 -0.4330126941 
   vertex 0.3535533845 -0.7071067691 -0.6123723984 
  endloop
 endfacet
 facet normal 0.010646 -0.051777 -0.039730
  outer loop
   vertex 0.25 -0.8660253882 -0.4330126941 
   vertex 0 -0.8660253882 -0.5 
   vertex 0.3535533845 -0.7071067691 -0.6123723984 
  endloop
 endfacet
 facet normal 0.015055 -0.073223 -0.056186
  outer loop
   vertex 0.3535533845 -0.7071067691 -0.6123723984 
   vertex 0 -0.8660253882 -0.5 
   vertex 0 -0.7071067691 -0.7071067691 
  endloop
 endfacet
 facet normal -0.010646 -0.051777 -0.039730
  outer loop
   vertex 0 -0.8660253882 -0.5 
   vertex -0.25 -0.8660253882 -0.4330126941 
   vertex 0 -0.7071067691 -0.7071067691 
  endloop
 endfacet
 facet normal -0.015055 -0.073223 -0.056186
  outer loop
   vertex 0 -0.7071067691 -0.7071067691 
   vertex -0.25 -0.8660253882 -0.4330126941 
   vertex -0.3535533845 -0.7071067691 -0.6123723984 
  endloop
 endfacet
 facet normal -0.029084 -0.051777 -0.029084
  outer loop
   vertex -0.25 -0.8660253882 -0.4330126941 
   vertex -0.4330126941 -0.8660253882 -0.25 
   vertex -0.3535533845 -0.7071067691 -0.6123723984 
  endloop
 endfacet
 facet normal -0.041131 -0.073223 -0.041131
  outer loop
   vertex -0.3535533845 -0.7071067691 -0.6123723984 
   vertex -0.4330126941 -0.8660253882 -0.25 
   vertex -0.6123723984 -0.7071067691 -0.3535533845 
  endloop
 endfacet
 facet normal -0.039730 -0.051777 -0.010646
  outer loop
   vertex -0.4330126941 -0.8660253882 -0.25 
   vertex -0.5 -0.8660253882 0 
   vertex -0.6123723984 -0.7071067691 -0.3535533845 
  endloop
 endfacet
 facet normal -0.056186 -0.073223 -0.015055
  outer loop
   vertex -0.6123723984 -0.7071067691 -0.3535533845 
   vertex -0.5 -0.8660253882 0 
   vertex -0.7071067691 -0.7071067691 0 
  endloop
 endfacet
 facet normal -0.039730 -0.051777 0.010646
  outer loop
   vertex -0.5 -0.8660253882 0 
   vertex -0.4330126941 -0.8660253882 0.25 
   vertex -0.7071067691 -0.7071067691 0 
  endloop
 endfacet
 facet normal -0.056186 -0.073223 0.015055
  outer loop
   vertex -0.7071067691 -0.7071067691 0 
   vertex -0.4330126941 -0.8660253882 0.25 
   vertex -0.6123723984 -0.7071067691 0.3535533845 
  endloop
 endfacet
 facet normal -0.029084 -0.051777 0.029084
  outer loop
   vertex -0.4330126941 -0.8660253882 0.25 
   vertex -0.25 -0.8660253882 0.4330126941 
   vertex -0.6123723984 -0.7071067691 0.3535533845 
  endloop
 endfacet
 facet normal -0.041131 -0.073223 0.041131
  outer loop
   vertex -0.6123723984 -0.7071067691 0.3535533845 
   vertex -0.25 -0.8660253882 0.4330126941 
   vertex -0.3535533845 -0.7071067691 0.6123723984 
  endloop
 endfacet
 facet normal -0.010646 -0.051777 0.039730
  outer loop
   vertex -0.25 -0.8660253882 0.4330126941 
   vertex 0 -0.8660253882 0.5 
   vertex -0.3535533845 -0.7071067691 0.6123723984 
  endloop
 endfacet
 facet normal -0.015055 -0.073223 0.056186
  outer loop
   vertex -0.3535533845 -0.7071067691 0.6123723984 
   vertex 0 -0.8660253882 0.5 
   vertex 0 -0.7071067691 0.7071067691 
  endloop
 endfacet
 facet normal 0.010646 -0.051777 0.039730
  outer loop
   vertex 0 -0.8660253882 0.5 
   vertex 0.25 -0.8660253882 0.4330126941 
   vertex 0 -0.7071067691 0.7071067691 
  endloop
 endfacet
 facet normal 0.015055 -0.073223 0.056186
  outer loop
   vertex 0 -0.7071067691 0.7071067691 
   vertex 0.25 -0.8660253882 0.4330126941 
   vertex 0.3535533845 -0.7071067691 0.6123723984 
  endloop
 endfacet
 facet normal 0.029084 -0.051777 0.029084
  outer loop
   vertex 0.25 -0.8660253882 0.4330126941 
   vertex 0.4330126941 -0.8660253882 0.25 
   vertex 0.3535533845 -0.7071067691 0.6123723984 
  endloop
 endfacet
 facet normal 0.041131 -0.073223 0.041131
  outer loop
   vertex 0.3535533845 -0.7071067691 0.6123723984 
   vertex 0.4330126941 -0.8660253882 0.25 
   vertex 0.6123723984 -0.7071067691 0.3535533845 
  endloop
 endfacet
 facet normal 0.039730 -0.051777 0.010646
  outer loop
   vertex 0.4330126941 -0.8660253882 0.25 
   vertex 0.5 -0.8660253882 0 
   vertex 0.6123723984 -0.7071067691 0.3535533845 
  endloop
 endfacet
 facet normal 0.056186 -0.073223 0.015055
  outer loop
   vertex 0.6123723984 -0.7071067691 0.3535533845 
   vertex 0.5 -0.8660253882 0 
   vertex 0.7071067691 -0.7071067691 0 
  endloop
 endfacet
 facet normal 0.039730 -0.051777 -0.010646
  outer loop
   vertex 0.5 -0.8660253882 0 
   vertex 0.4330126941 -0.8660253882 -0.25 
   vertex 0.7071067691 -0.7071067691 0 
  endloop
 endfacet
 facet normal 0.056186 -0.073223 -0.015055
  outer loop
   vertex 0.7071067691 -0.7071067691 0 
   vertex 0.4330126941 -0.8660253882 -0.25 
   vertex 0.6123723984 -0.7071067691 -0.3535533845 
  endloop
 endfacet
 facet normal 0.053603 -0.056186 -0.053603
  outer loop
   vertex 0.6123723984 -0.7071067691 -0.3535533845 
   vertex 0.3535533845 -0.7071067691 -0.6123723984 
   vertex 0.75 -0.4999999702 -0.4330127239 
  endloop
 endfacet
 facet normal 0.065650 -0.068814 -0.065650
  outer loop
   vertex 0.75 -0.4999999702 -0.4330127239 
   vertex 0.3535533845 -0.7071067691 -0.6123723984 
   vertex 0.4330127239 -0.4999999702 -0.75 
  endloop
 endfacet
 facet normal 0.019620 -0.056186 -0.073223
  outer loop
   vertex 0.3535533845 -0.7071067691 -0.6123723984 
   vertex 0 -0.7071067691 -0.7071067691 
   vertex 0.4330127239 -0.4999999702 -0.75 
  endloop
 endfacet
 facet normal 0.024030 -0.068814 -0.089680
  outer loop
   vertex 0.4330127239 -0.4999999702 -0.75 
   vertex 0 -0.7071067691 -0.7071067691 
   vertex 0 -0.4999999702 -0.8660254478 
  endloop
 endfacet
 facet normal -0.019620 -0.056186 -0.073223
  outer loop
   vertex 0 -0.7071067691 -0.7071067691 
   vertex -0.3535533845 -0.7071067691 -0.6123723984 
   vertex 0 -0.4999999702 -0.8660254478 
  endloop
 endfacet
 facet normal -0.024030 -0.068814 -0.089680
  outer loop
   vertex 0 -0.4999999702 -0.8660254478 
   vertex -0.3535533845 -0.7071067691 -0.6123723984 
   vertex -0.4330127239 -0.4999999702 -0.75 
  endloop
 endfacet
 facet normal -0.053603 -0.056186 -0.053603
  outer loop
   vertex -0.3535533845 -0.7071067691 -0.6123723984 
   vertex -0.6123723984 -0.7071067691 -0.3535533845 
   vertex -0.4330127239 -0.4999999702 -0.75 
  endloop
 endfacet
 facet normal -0.065650 -0.068814 -0.065650
  outer loop
   vertex -0.4330127239 -0.4999999702 -0.75 
   vertex -0.6123723984 -0.7071067691 -0.3535533845 
   vertex -0.75 -0.4999999702 -0.4330127239 
  endloop
 endfacet
 facet normal -0.073223 -0.056186 -0.019620
  outer loop
   vertex -0.6123723984 -0.7071067691 -0.3535533845 
   vertex -0.7071067691 -0.7071067691 0 
   vertex -0.75 -0.4999999702 -0.4330127239 
  endloop
 endfacet
 facet normal -0.089680 -0.068814 -0.024030
  outer loop
   vertex -0.75 -0.4999999702 -0.4330127239 
   vertex -0.7071067691 -0.7071067691 0 
   vertex -0.8660254478 -0.4999999702 0 
  endloop
 endfacet
 facet normal -0.073223 -0.056186 0.019620
  outer loop
   vertex -0.7071067691 -0.7071067691 0 
   vertex -0.6123723984 -0.7071067691 0.3535533845 
   vertex -0.8660254478 -0.4999999702 0 
  endloop
 endfacet
 facet normal -0.089680 -0.068814 0.024030
  outer loop
   vertex -0.8660254478 -0.4999999702 0 
   vertex -0.6123723984 -0.7071067691 0.3535533845 
   vertex -0.75 -0.4999999702 0.4330127239 
  endloop
 endfacet
 facet normal -0.053603 -0.056186 0.053603
  outer loop
   vertex -0.6123723984 -0.7071067691 0.3535533845 
   vertex -0.3535533845 -0.7071067691 0.6123723984 
   vertex -0.75 -0.4999999702 0.4330127239 
  endloop
 endfacet
 facet normal -0.065650 -0.068814 0.065650
  outer loop
   vertex -0.75 -0.4999999702 0.4330127239 
   vertex -0.3535533845 -0.7071067691 0.6123723984 
   vertex -0.4330127239 -0.4999999702 0.75 
  endloop
 endfacet
 facet normal -0.019620 -0.056186 0.073223
  outer loop
   vertex -0.3535533845 -0.7071067691 0.6123723984 
   vertex 0 -0.7071067691 0.7071067691 
   vertex -0.4330127239 -0.4999999702 0.75 
  endloop
 endfacet
 facet normal -0.024030 -0.068814 0.089680
  outer loop
   vertex -0.4330127239 -0.4999999702 0.75 
   vertex 0 -0.7071067691 0.7071067691 
   vertex 0 -0.4999999702 0.8660254478 
  endloop
 endfacet
 facet normal 0.019620 -0.056186 0.073223
  outer loop
   vertex 0 -0.7071067691 0.7071067691 
   vertex 0.3535533845 -0.7071067691 0.6123723984 
   vertex 0 -0.4999999702 0.8660254478 
  endloop
 endfacet
 facet normal 0.024030 -0.068814 0.089680
  outer loop
   vertex 0 -0.4999999702 0.8660254478 
   vertex 0.3535533845 -0.7071067691 0.6123723984 
   vertex 0.4330127239 -0.4999999702 0.75 
  endloop
 endfacet
 facet normal 0.053603 -0.056186 0.053603
  outer loop
   vertex 0.3535533845 -0.7071067691 0.6123723984 
   vertex 0.6123723984 -0.7071067691 0.3535533845 
   vertex 0.4330127239 -0.4999999702 0.75 
  endloop
 endfacet
 facet normal 0.065650 -0.068814 0.065650
  outer loop
   vertex 0.4330127239 -0.4999999702 0.75 
   vertex 0.6123723984 -0.7071067691 0.3535533845 
   vertex 0.75 -0.4999999702 0.4330127239 
  endloop
 endfacet
 facet normal 0.073223 -0.056186 0.019620
  outer loop
   vertex 0.6123723984 -0.7071067691 0.3535533845 
   vertex 0.7071067691 -0.7071067691 0 
   vertex 0.75 -0.4999999702 0.4330127239 
  endloop
 endfacet
 facet normal 0.089680 -0.068814 0.024030
  outer loop
   vertex 0.75 -0.4999999702 0.4330127239 
   vertex 0.7071067691 -0.7071067691 0 
   vertex 0.8660254478 -0.4999999702 0 
  endloop
 endfacet
 facet normal 0.073223 -0.056186 -0.019620
  outer loop
   vertex 0.7071067691 -0.7071067691 0 
   vertex 0.6123723984 -0.7071067691 -0.3535533845 
   vertex 0.8660254478 -0.4999999702 0 
  endloop
 endfacet
 facet normal 0.089680 -0.068814 -0.024030
  outer loop
   vertex 0.8660254478 -0.4999999702 0 
   vertex 0.6123723984 -0.7071067691 -0.3535533845 
   vertex 0.75 -0.4999999702 -0.4330127239 
  endloop
 endfacet
 facet normal 0.059454 -0.033640 -0.059454
  outer loop
   vertex 0.7792765498 -0.5022690892 -0.4878980517 
   vertex 0.4878980517 -0.5022690892 -0.7792765498 
   vertex 0.8524707556 -0.2982259989 -0.5301567316 
  endloop
 endfacet
 facet normal 0.065766 -0.037212 -0.065766
  outer loop
   vertex 0.8524707556 -0.2982259989 -0.5301567316 
   vertex 0.4878980517 -0.5022690892 -0.7792765498 
   vertex 0.5301567316 -0.2982259989 -0.8524707556 
  endloop
 endfacet
 facet normal 0.027983 -0.043258 -0.104434
  outer loop
   vertex 0.4330127239 -0.4999999702 -0.75 
   vertex 0 -0.4999999702 -0.8660254478 
   vertex 0.4829629064 -0.2588190734 -0.8365162611 
  endloop
 endfacet
 facet normal 0.031211 -0.048248 -0.116481
  outer loop
   vertex 0.4829629064 -0.2588190734 -0.8365162611 
   vertex 0 -0.4999999702 -0.8660254478 
   vertex 0 -0.2588190734 -0.9659258127 
  endloop
 endfacet
 facet normal -0.027983 -0.043258 -0.104434
  outer loop
   vertex 0 -0.4999999702 -0.8660254478 
   vertex -0.4330127239 -0.4999999702 -0.75 
   vertex 0 -0.2588190734 -0.9659258127 
  endloop
 endfacet
 facet normal -0.031211 -0.048248 -0.116481
  outer loop
   vertex 0 -0.2588190734 -0.9659258127 
   vertex -0.4330127239 -0.4999999702 -0.75 
   vertex -0.4829629064 -0.2588190734 -0.8365162611 
  endloop
 endfacet
 facet normal -0.059454 -0.033640 -0.059454
  outer loop
   vertex -0.4878980517 -0.5022690892 -0.7792765498 
   vertex -0.7792765498 -0.5022690892 -0.4878980517 
   vertex -0.5301567316 -0.2982259989 -0.8524707556 
  endloop
 endfacet
 facet normal -0.065766 -0.037212 -0.065766
  outer loop
   vertex -0.5301567316 -0.2982259989 -0.8524707556 
   vertex -0.7792765498 -0.5022690892 -0.4878980517 
   vertex -0.8524707556 -0.2982259989 -0.5301567316 
  endloop
 endfacet
 facet normal -0.104434 -0.043258 -0.027983
  outer loop
   vertex -0.75 -0.4999999702 -0.4330127239 
   vertex -0.8660254478 -0.4999999702 0 
   vertex -0.8365162611 -0.2588190734 -0.4829629064 
  endloop
 endfacet
 facet normal -0.116481 -0.048248 -0.031211
  outer loop
   vertex -0.8365162611 -0.2588190734 -0.4829629064 
   vertex -0.8660254478 -0.4999999702 0 
   vertex -0.9659258127 -0.2588190734 0 
  endloop
 endfacet
 facet normal -0.104434 -0.043258 0.027983
  outer loop
   vertex -0.8660254478 -0.4999999702 0 
   vertex -0.75 -0.4999999702 0.4330127239 
   vertex -0.9659258127 -0.2588190734 0 
  endloop
 endfacet
 facet normal -0.116481 -0.048248 0.031211
  outer loop
   vertex -0.9659258127 -0.2588190734 0 
   vertex -0.75 -0.4999999702 0.4330127239 
   vertex -0.8365162611 -0.2588190734 0.4829629064 
  endloop
 endfacet
 facet normal -0.059454 -0.033640 0.059454
  outer loop
   vertex -0.7792765498 -0.5022690892 0.4878980517 
   vertex -0.4878980517 -0.5022690892 0.7792765498 
   vertex -0.8524707556 -0.2982259989 0.5301567316 
  endloop
 endfacet
 facet normal -0.065766 -0.037212 0.065766
  outer loop
   vertex -0.8524707556 -0.2982259989 0.5301567316 
   vertex -0.4878980517 -0.5022690892 0.7792765498 
   vertex -0.5301567316 -0.2982259989 0.8524707556 
  endloop
 endfacet
 facet normal -0.027983 -0.043258 0.104434
  outer loop
   vertex -0.4330127239 -0.4999999702 0.75 
   vertex 0 -0.4999999702 0.8660254478 
   vertex -0.4829629064 -0.2588190734 0.8365162611 
  endloop
 endfacet
 facet normal -0.031211 -0.048248 0.116481
  outer loop
   vertex -0.4829629064 -0.2588190734 0.8365162611 
   vertex 0 -0.4999999702 0.8660254478 
   vertex 0 -0.2588190734 0.9659258127 
  endloop
 endfacet
 facet normal 0.027983 -0.043258 0.104434
  outer loop
   vertex 0 -0.4999999702 0.8660254478 
   vertex 0.4330127239 -0.4999999702 0.75 
   vertex 0 -0.2588190734 0.9659258127 
  endloop
 endfacet
 facet normal 0.031211 -0.048248 0.116481
  outer loop
   vertex 0 -0.2588190734 0.9659258127 
   vertex 0.4330127239 -0.4999999702 0.75 
   vertex 0.4829629064 -0.2588190734 0.8365162611 
  endloop
 endfacet
 facet normal 0.059454 -0.033640 0.059454
  outer loop
   vertex 0.4878980517 -0.5022690892 0.7792765498 
   vertex 0.7792765498 -0.5022690892 0.4878980517 
   vertex 0.5301567316 -0.2982259989 0.8524707556 
  endloop
 endfacet
 facet normal 0.065766 -0.037212 0.065766
  outer loop
   vertex 0.5301567316 -0.2982259989 0.8524707556 
   vertex 0.7792765498 -0.5022690892 0.4878980517 
   vertex 0.8524707556 -0.2982259989 0.5301567316 
  endloop
 endfacet
 facet normal 0.104434 -0.043258 0.027983
  outer loop
   vertex 0.75 -0.4999999702 0.4330127239 
   vertex 0.8660254478 -0.4999999702 0 
   vertex 0.8365162611 -0.2588190734 0.4829629064 
  endloop
 endfacet
 facet normal 0.116481 -0.048248 0.031211
  outer loop
   vertex 0.8365162611 -0.2588190734 0.4829629064 
   vertex 0.8660254478 -0.4999999702 0 
   vertex 0.9659258127 -0.2588190734 0 
  endloop
 endfacet
 facet normal 0.104434 -0.043258 -0.027983
  outer loop
   vertex 0.8660254478 -0.4999999702 0 
   vertex 0.75 -0.4999999702 -0.4330127239 
   vertex 0.9659258127 -0.2588190734 0 
  endloop
 endfacet
 facet normal 0.116481 -0.048248 -0.031211
  outer loop
   vertex 0.9659258127 -0.2588190734 0 
   vertex 0.75 -0.4999999702 -0.4330127239 
   vertex 0.8365162611 -0.2588190734 -0.4829629064 
  endloop
 endfacet
 facet normal 0.091506 -0.016457 -0.091506
  outer loop
   vertex 0.8365162611 -0.2588190734 -0.4829629064 
   vertex 0.4829629064 -0.2588190734 -0.8365162611 
   vertex 0.8660253882 0 -0.5 
  endloop
 endfacet
 facet normal 0.094734 -0.017037 -0.094734
  outer loop
   vertex 0.8660253882 0 -0.5 
   vertex 0.4829629064 -0.2588190734 -0.8365162611 
   vertex 0.5 0 -0.8660253882 
  endloop
 endfacet
 facet normal 0.033494 -0.016457 -0.125000
  outer loop
   vertex 0.4829629064 -0.2588190734 -0.8365162611 
   vertex 0 -0.2588190734 -0.9659258127 
   vertex 0.5 0 -0.8660253882 
  endloop
 endfacet
 facet normal 0.034675 -0.017037 -0.129410
  outer loop
   vertex 0.5 0 -0.8660253882 
   vertex 0 -0.2588190734 -0.9659258127 
   vertex 0 0 -1 
  endloop
 endfacet
 facet normal -0.033494 -0.016457 -0.125000
  outer loop
   vertex 0 -0.2588190734 -0.9659258127 
   vertex -0.4829629064 -0.2588190734 -0.8365162611 
   vertex 0 0 -1 
  endloop
 endfacet
 facet normal -0.034675 -0.017037 -0.129410
  outer loop
   vertex 0 0 -1 
   vertex -0.4829629064 -0.2588190734 -0.8365162611 
   vertex -0.5 0 -0.8660253882 
  endloop
 endfacet
 facet normal -0.091506 -0.016457 -0.091506
  outer loop
   vertex -0.4829629064 -0.2588190734 -0.8365162611 
   vertex -0.8365162611 -0.2588190734 -0.4829629064 
   vertex -0.5 0 -0.8660253882 
  endloop
 endfacet
 facet normal -0.094734 -0.017037 -0.094734
  outer loop
   vertex -0.5 0 -0.8660253882 
   vertex -0.8365162611 -0.2588190734 -0.4829629064 
   vertex -0.8660253882 0 -0.5 
  endloop
 endfacet
 facet normal -0.125000 -0.016457 -0.033494
  outer loop
   vertex -0.8365162611 -0.2588190734 -0.4829629064 
   vertex -0.9659258127 -0.2588190734 0 
   vertex -0.8660253882 0 -0.5 
  endloop
 endfacet
 facet normal -0.129410 -0.017037 -0.034675
  outer loop
   vertex -0.8660253882 0 -0.5 
   vertex -0.9659258127 -0.2588190734 0 
   vertex -1 0 0 
  endloop
 endfacet
 facet normal -0.125000 -0.016457 0.033494
  outer loop
   vertex -0.9659258127 -0.2588190734 0 
   vertex -0.8365162611 -0.2588190734 0.4829629064 
   vertex -1 0 0 
  endloop
 endfacet
 facet normal -0.129410 -0.017037 0.034675
  outer loop
   vertex -1 0 0 
   vertex -0.8365162611 -0.2588190734 0.4829629064 
   vertex -0.8660253882 0 0.5 
  endloop
 endfacet
 facet normal -0.091506 -0.016457 0.091506
  outer loop
   vertex -0.8365162611 -0.2588190734 0.4829629064 
   vertex -0.4829629064 -0.2588190734 0.8365162611 
   vertex -0.8660253882 0 0.5 
  endloop
 endfacet
 facet normal -0.094734 -0.017037 0.094734
  outer loop
   vertex -0.8660253882 0 0.5 
   vertex -0.4829629064 -0.2588190734 0.8365162611 
   vertex -0.5 0 0.8660253882 
  endloop
 endfacet
 facet normal -0.033494 -0.016457 0.125000
  outer loop
   vertex -0.4829629064 -0.2588190734 0.8365162611 
   vertex 0 -0.2588190734 0.9659258127 
   vertex -0.5 0 0.8660253882 
  endloop
 endfacet
 facet normal -0.034675 -0.017037 0.129410
  outer loop
   vertex -0.5 0 0.8660253882 
   vertex 0 -0.2588190734 0.9659258127 
   vertex 0 0 1 
  endloop
 endfacet
 facet normal 0.033494 -0.016457 0.125000
  outer loop
   vertex 0 -0.2588190734 0.9659258127 
   vertex 0.4829629064 -0.2588190734 0.8365162611 
   vertex 0 0 1 
  endloop
 endfacet
 facet normal 0.034675 -0.017037 0.129410
  outer loop
   vertex 0 0 1 
   vertex 0.4829629064 -0.2588190734 0.8365162611 
   vertex 0.5 0 0.8660253882 
  endloop
 endfacet
 facet normal 0.091506 -0.016457 0.091506
  outer loop
   vertex 0.4829629064 -0.2588190734 0.8365162611 
   vertex 0.8365162611 -0.2588190734 0.4829629064 
   vertex 0.5 0 0.8660253882 
  endloop
 endfacet
 facet normal 0.094734 -0.017037 0.094734
  outer loop
   vertex 0.5 0 0.8660253882 
   vertex 0.8365162611 -0.2588190734 0.4829629064 
   vertex 0.8660253882 0 0.5 
  endloop
 endfacet
 facet normal 0.125000 -0.016457 0.033494
  outer loop
   vertex 0.8365162611 -0.2588190734 0.4829629064 
   vertex 0.9659258127 -0.2588190734 0 
   vertex 0.8660253882 0 0.5 
  endloop
 endfacet
 facet normal 0.129410 -0.017037 0.034675
  outer loop
   vertex 0.8660253882 0 0.5 
   vertex 0.9659258127 -0.2588190734 0 
   vertex 1 0 0 
  endloop
 endfacet
 facet normal 0.125000 -0.016457 -0.033494
  outer loop
   vertex 0.9659258127 -0.2588190734 0 
   vertex 0.8365162611 -0.2588190734 -0.4829629064 
   vertex 1 0 0 
  endloop
 endfacet
 facet normal 0.129410 -0.017037 -0.034675
  outer loop
   vertex 1 0 0 
   vertex 0.8365162611 -0.2588190734 -0.4829629064 
   vertex 0.8660253882 0 -0.5 
  endloop
 endfacet
 facet normal 0.094734 0.017037 -0.094734
  outer loop
   vertex 0.8660253882 0 -0.5 
   vertex 0.5 0 -0.8660253882 
   vertex 0.8365162611 0.2588190734 -0.4829629064 
  endloop
 endfacet
 facet normal 0.091506 0.016457 -0.091506
  outer loop
   vertex 0.8365162611 0.2588190734 -0.4829629064 
   vertex 0.5 0 -0.8660253882 
   vertex 0.4829629064 0.2588190734 -0.8365162611 
  endloop
 endfacet
 facet normal 0.034675 0.017037 -0.129410
  outer loop
   vertex 0.5 0 -0.8660253882 
   vertex 0 0 -1 
   vertex 0.4829629064 0.2588190734 -0.8365162611 
  endloop
 endfacet
 facet normal 0.033494 0.016457 -0.125000
  outer loop
   vertex 0.4829629064 0.2588190734 -0.8365162611 
   vertex 0 0 -1 
   vertex 0 0.2588190734 -0.9659258127 
  endloop
 endfacet
 facet normal -0.034675 0.017037 -0.129410
  outer loop
   vertex 0 0 -1 
   vertex -0.5 0 -0.8660253882 
   vertex 0 0.2588190734 -0.9659258127 
  endloop
 endfacet
 facet normal -0.033494 0.016457 -0.125000
  outer loop
   vertex 0 0.2588190734 -0.9659258127 
   vertex -0.5 0 -0.8660253882 
   vertex -0.4829629064 0.2588190734 -0.8365162611 
  endloop
 endfacet
 facet normal -0.094734 0.017037 -0.094734
  outer loop
   vertex -0.5 0 -0.8660253882 
   vertex -0.8660253882 0 -0.5 
   vertex -0.4829629064 0.2588190734 -0.8365162611 
  endloop
 endfacet
 facet normal -0.091506 0.016457 -0.091506
  outer loop
   vertex -0.4829629064 0.2588190734 -0.8365162611 
   vertex -0.8660253882 0 -0.5 
   vertex -0.8365162611 0.2588190734 -0.4829629064 
  endloop
 endfacet
 facet normal -0.129410 0.017037 -0.034675
  outer loop
   vertex -0.8660253882 0 -0.5 
   vertex -1 0 0 
   vertex -0.8365162611 0.2588190734 -0.4829629064 
  endloop
 endfacet
 facet normal -0.125000 0.016457 -0.033494
  outer loop
   vertex -0.8365162611 0.2588190734 -0.4829629064 
   vertex -1 0 0 
   vertex -0.9659258127 0.2588190734 0 
  endloop
 endfacet
 facet normal -0.129410 0.017037 0.034675
  outer loop
   vertex -1 0 0 
   vertex -0.8660253882 0 0.5 
   vertex -0.9659258127 0.2588190734 0 
  endloop
 endfacet
 facet normal -0.125000 0.016457 0.033494
  outer loop
   vertex -0.9659258127 0.2588190734 0 
   vertex -0.8660253882 0 0.5 
   vertex -0.8365162611 0.2588190734 0.4829629064 
  endloop
 endfacet
 facet normal -0.094734 0.017037 0.094734
  outer loop
   vertex -0.8660253882 0 0.5 
   vertex -0.5 0 0.8660253882 
   vertex -0.8365162611 0.2588190734 0.4829629064 
  endloop
 endfacet
 facet normal -0.091506 0.016457 0.091506
  outer loop
   vertex -0.8365162611 0.2588190734 0.4829629064 
   vertex -0.5 0 0.8660253882 
   vertex -0.4829629064 0.2588190734 0.8365162611 
  endloop
 endfacet
 facet normal -0.034675 0.017037 0.129410
  outer loop
   vertex -0.5 0 0.8660253882 
   vertex 0 0 1 
   vertex -0.4829629064 0.2588190734 0.8365162611 
  endloop
 endfacet
 facet normal -0.033494 0.016457 0.125000
  outer loop
   vertex -0.4829629064 0.2588190734 0.8365162611 
   vertex 0 0 1 
   vertex 0 0.2588190734 0.9659258127 
  endloop
 endfacet
 facet normal 0.034675 0.017037 0.129410
  outer loop
   vertex 0 0 1 
   vertex 0.5 0 0.8660253882 
   vertex 0 0.2588190734 0.9659258127 
  endloop
 endfacet
 facet normal 0.033494 0.016457 0.125000
  outer loop
   vertex 0 0.2588190734 0.9659258127 
   vertex 0.5 0 0.8660253882 
   vertex 0.4829629064 0.2588190734 0.8365162611 
  endloop
 endfacet
 facet normal 0.094734 0.017037 0.094734
  outer loop
   vertex 0.5 0 0.8660253882 
   vertex 0.8660253882 0 0.5 
   vertex 0.4829629064 0.2588190734 0.8365162611 
  endloop
 endfacet
 facet normal 0.091506 0.016457 0.091506
  outer loop
   vertex 0.4829629064 0.2588190734 0.8365162611 
   vertex 0.8660253882 0 0.5 
   vertex 0.8365162611 0.2588190734 0.4829629064 
  endloop
 endfacet
 facet normal 0.129410 0.017037 0.034675
  outer loop
   vertex 0.8660253882 0 0.5 
   vertex 1 0 0 
   vertex 0.8365162611 0.2588190734 0.4829629064 
  endloop
 endfacet
 facet normal 0.125000 0.016457 0.033494
  outer loop
   vertex 0.8365162611 0.2588190734 0.4829629064 
   vertex 1 0 0 
   vertex 0.9659258127 0.2588190734 0 
  endloop
 endfacet
 facet normal 0.129410 0.017037 -0.034675
  outer loop
   vertex 1 0 0 
   vertex 0.8660253882 0 -0.5 
   vertex 0.9659258127 0.2588190734 0 
  endloop
 endfacet
 facet normal 0.125000 0.016457 -0.033494
  outer loop
   vertex 0.9659258127 0.2588190734 0 
   vertex 0.8660253882 0 -0.5 
   vertex 0.8365162611 0.2588190734 -0.4829629064 
  endloop
 endfacet
 facet normal 0.065766 0.037212 -0.065766
  outer loop
   vertex 0.8524707556 0.2982259989 -0.5301567316 
   vertex 0.5301567316 0.2982259989 -0.8524707556 
   vertex 0.7792765498 0.5022690892 -0.4878980517 
  endloop
 endfacet
 facet normal 0.059454 0.033640 -0.059454
  outer loop
   vertex 0.7792765498 0.5022690892 -0.4878980517 
   vertex 0.5301567316 0.2982259989 -0.8524707556 
   vertex 0.4878980517 0.5022690892 -0.7792765498 
  endloop
 endfacet
 facet normal 0.031211 0.048248 -0.116481
  outer loop
   vertex 0.4829629064 0.2588190734 -0.8365162611 
   vertex 0 0.2588190734 -0.9659258127 
   vertex 0.4330127239 0.4999999702 -0.75 
  endloop
 endfacet
 facet normal 0.027983 0.043258 -0.104434
  outer loop
   vertex 0.4330127239 0.4999999702 -0.75 
   vertex 0 0.2588190734 -0.9659258127 
   vertex 0 0.4999999702 -0.8660254478 
  endloop
 endfacet
 facet normal -0.031211 0.048248 -0.116481
  outer loop
   vertex 0 0.2588190734 -0.9659258127 
   vertex -0.4829629064 0.2588190734 -0.8365162611 
   vertex 0 0.4999999702 -0.8660254478 
  endloop
 endfacet
 facet normal -0.027983 0.043258 -0.104434
  outer loop
   vertex 0 0.4999999702 -0.8660254478 
   vertex -0.4829629064 0.2588190734 -0.8365162611 
   vertex -0.4330127239 0.4999999702 -0.75 
  endloop
 endfacet
 facet normal -0.065766 0.037212 -0.065766
  outer loop
   vertex -0.5301567316 0.2982259989 -0.8524707556 
   vertex -0.8524707556 0.2982259989 -0.5301567316 
   vertex -0.4878980517 0.5022690892 -0.7792765498 
  endloop
 endfacet
 facet normal -0.059454 0.033640 -0.059454
  outer loop
   vertex -0.4878980517 0.5022690892 -0.7792765498 
   vertex -0.8524707556 0.2982259989 -0.5301567316 
   vertex -0.7792765498 0.5022690892 -0.4878980517 
  endloop
 endfacet
 facet normal -0.116481 0.048248 -0.031211
  outer loop
   vertex -0.8365162611 0.2588190734 -0.4829629064 
   vertex -0.9659258127 0.2588190734 0 
   vertex -0.75 0.4999999702 -0.4330127239 
  endloop
 endfacet
 facet normal -0.104434 0.043258 -0.027983
  outer loop
   vertex -0.75 0.4999999702 -0.4330127239 
   vertex -0.9659258127 0.2588190734 0 
   vertex -0.8660254478 0.4999999702 0 
  endloop
 endfacet
 facet normal -0.116481 0.048248 0.031211
  outer loop
   vertex -0.9659258127 0.2588190734 0 
   vertex -0.8365162611 0.2588190734 0.4829629064 
   vertex -0.8660254478 0.4999999702 0 
  endloop
 endfacet
 facet normal -0.104434 0.043258 0.027983
  outer loop
   vertex -0.8660254478 0.4999999702 0 
   vertex -0.8365162611 0.2588190734 0.4829629064 
   vertex -0.75 0.4999999702 0.4330127239 
  endloop
 endfacet
 facet normal -0.065766 0.037212 0.065766
  outer loop
   vertex -0.8524707556 0.2982259989 0.5301567316 
   vertex -0.5301567316 0.2982259989 0.8524707556 
   vertex -0.7792765498 0.5022690892 0.4878980517 
  endloop
 endfacet
 facet normal -0.059454 0.033640 0.059454
  outer loop
   vertex -0.7792765498 0.5022690892 0.4878980517 
   vertex -0.5301567316 0.2982259989 0.8524707556 
   vertex -0.4878980517 0.5022690892 0.7792765498 
  endloop
 endfacet
 facet normal -0.031211 0.048248 0.116481
  outer loop
   vertex -0.4829629064 0.2588190734 0.8365162611 
   vertex 0 0.2588190734 0.9659258127 
   vertex -0.4330127239 0.4999999702 0.75 
  endloop
 endfacet
 facet normal -0.027983 0.043258 0.104434
  outer loop
   vertex -0.4330127239 0.4999999702 0.75 
   vertex 0 0.2588190734 0.9659258127 
   vertex 0 0.4999999702 0.8660254478 
  endloop
 endfacet
 facet normal 0.031211 0.048248 0.116481
  outer loop
   vertex 0 0.2588190734 0.9659258127 
   vertex 0.4829629064 0.2588190734 0.8365162611 
   vertex 0 0.4999999702 0.8660254478 
  endloop
 endfacet
 facet normal 0.027983 0.043258 0.104434
  outer loop
   vertex 0 0.4999999702 0.8660254478 
   vertex 0.4829629064 0.2588190734 0.8365162611 
   vertex 0.4330127239 0.4999999702 0.75 
  endloop
 endfacet
 facet normal 0.065766 0.037212 0.065766
  outer loop
   vertex 0.5301567316 0.2982259989 0.8524707556 
   vertex 0.8524707556 0.2982259989 0.5301567316 
   vertex 0.4878980517 0.5022690892 0.7792765498 
  endloop
 endfacet
 facet normal 0.059454 0.033640 0.059454
  outer loop
   vertex 0.4878980517 0.5022690892 0.7792765498 
   vertex 0.8524707556 0.2982259989 0.5301567316 
   vertex 0.7792765498 0.5022690892 0.4878980517 
  endloop
 endfacet
 facet normal 0.116481 0.048248 0.031211
  outer loop
   vertex 0.8365162611 0.2588190734 0.4829629064 
   vertex 0.9659258127 0.2588190734 0 
   vertex 0.75 0.4999999702 0.4330127239 
  endloop
 endfacet
 facet normal 0.104434 0.043258 0.027983
  outer loop
   vertex 0.75 0.4999999702 0.4330127239 
   vertex 0.9659258127 0.2588190734 0 
   vertex 0.8660254478 0.4999999702 0 
  endloop
 endfacet
 facet normal 0.116481 0.048248 -0.031211
  outer loop
   vertex 0.9659258127 0.2588190734 0 
   vertex 0.8365162611 0.2588190734 -0.4829629064 
   vertex 0.8660254478 0.4999999702 0 
  endloop
 endfacet
 facet normal 0.104434 0.043258 -0.027983
  outer loop
   vertex 0.8660254478 0.4999999702 0 
   vertex 0.8365162611 0.2588190734 -0.4829629064 
   vertex 0.75 0.4999999702 -0.4330127239 
  endloop
 endfacet
 facet normal 0.065650 0.068814 -0.065650
  outer loop
   vertex 0.75 0.4999999702 -0.4330127239 
   vertex 0.4330127239 0.4999999702 -0.75 
   vertex 0.6123723984 0.7071067691 -0.3535533845 
  endloop
 endfacet
 facet normal 0.053603 0.056186 -0.053603
  outer loop
   vertex 0.6123723984 0.7071067691 -0.3535533845 
   vertex 0.4330127239 0.4999999702 -0.75 
   vertex 0.3535533845 0.7071067691 -0.6123723984 
  endloop
 endfacet
 facet normal 0.024030 0.068814 -0.089680
  outer loop
   vertex 0.4330127239 0.4999999702 -0.75 
   vertex 0 0.4999999702 -0.8660254478 
   vertex 0.3535533845 0.7071067691 -0.6123723984 
  endloop
 endfacet
 facet normal 0.019620 0.056186 -0.073223
  outer loop
   vertex 0.3535533845 0.7071067691 -0.6123723984 
   vertex 0 0.4999999702 -0.8660254478 
   vertex 0 0.7071067691 -0.7071067691 
  endloop
 endfacet
 facet normal -0.024030 0.068814 -0.089680
  outer loop
   vertex 0 0.4999999702 -0.8660254478 
   vertex -0.4330127239 0.4999999702 -0.75 
   vertex 0 0.7071067691 -0.7071067691 
  endloop
 endfacet
 facet normal -0.019620 0.056186 -0.073223
  outer loop
   vertex 0 0.7071067691 -0.7071067691 
   vertex -0.4330127239 0.4999999702 -0.75 
   vertex -0.3535533845 0.7071067691 -0.6123723984 
  endloop
 endfacet
 facet normal -0.065650 0.068814 -0.065650
  outer loop
   vertex -0.4330127239 0.4999999702 -0.75 
   vertex -0.75 0.4999999702 -0.4330127239 
   vertex -0.3535533845 0.7071067691 -0.6123723984 
  endloop
 endfacet
 facet normal -0.053603 0.056186 -0.053603
  outer loop
   vertex -0.3535533845 0.7071067691 -0.6123723984 
   vertex -0.75 0.4999999702 -0.4330127239 
   vertex -0.6123723984 0.7071067691 -0.3535533845 
  endloop
 endfacet
 facet normal -0.089680 0.068814 -0.024030
  outer loop
   vertex -0.75 0.4999999702 -0.4330127239 
   vertex -0.8660254478 0.4999999702 0 
   vertex -0.6123723984 0.7071067691 -0.3535533845 
  endloop
 endfacet
 facet normal -0.073223 0.056186 -0.019620
  outer loop
   vertex -0.6123723984 0.7071067691 -0.3535533845 
   vertex -0.8660254478 0.4999999702 0 
   vertex -0.7071067691 0.7071067691 0 
  endloop
 endfacet
 facet normal -0.089680 0.068814 0.024030
  outer loop
   vertex -0.8660254478 0.4999999702 0 
   vertex -0.75 0.4999999702 0.4330127239 
   vertex -0.7071067691 0.7071067691 0 
  endloop
 endfacet
 facet normal -0.073223 0.056186 0.019620
  outer loop
   vertex -0.7071067691 0.7071067691 0 
   vertex -0.75 0.4999999702 0.4330127239 
   vertex -0.6123723984 0.7071067691 0.3535533845 
  endloop
 endfacet
 facet normal -0.065650 0.068814 0.065650
  outer loop
   vertex -0.75 0.4999999702 0.4330127239 
   vertex -0.4330127239 0.4999999702 0.75 
   vertex -0.6123723984 0.7071067691 0.3535533845 
  endloop
 endfacet
 facet normal -0.053603 0.056186 0.053603
  outer loop
   vertex -0.6123723984 0.7071067691 0.3535533845 
   vertex -0.4330127239 0.4999999702 0.75 
   vertex -0.3535533845 0.7071067691 0.6123723984 
  endloop
 endfacet
 facet normal -0.024030 0.068814 0.089680
  outer loop
   vertex -0.4330127239 0.4999999702 0.75 
   vertex 0 0.4999999702 0.8660254478 
   vertex -0.3535533845 0.7071067691 0.6123723984 
  endloop
 endfacet
 facet normal -0.019620 0.056186 0.073223
  outer loop
   vertex -0.3535533845 0.7071067691 0.6123723984 
   vertex 0 0.4999999702 0.8660254478 
   vertex 0 0.7071067691 0.7071067691 
  endloop
 endfacet
 facet normal 0.024030 0.068814 0.089680
  outer loop
   vertex 0 0.4999999702 0.8660254478 
   vertex 0.4330127239 0.4999999702 0.75 
   vertex 0 0.7071067691 0.7071067691 
  endloop
 endfacet
 facet normal 0.019620 0.056186 0.073223
  outer loop
   vertex 0 0.7071067691 0.7071067691 
   vertex 0.4330127239 0.4999999702 0.75 
   vertex 0.3535533845 0.7071067691 0.6123723984 
  endloop
 endfacet
 facet normal 0.065650 0.068814 0.065650
  outer loop
   vertex 0.4330127239 0.4999999702 0.75 
   vertex 0.75 0.4999999702 0.4330127239 
   vertex 0.3535533845 0.7071067691 0.6123723984 
  endloop
 endfacet
 facet normal 0.053603 0.056186 0.053603
  outer loop
   vertex 0.3535533845 0.7071067691 0.6123723984 
   vertex 0.75 0.4999999702 0.4330127239 
   vertex 0.6123723984 0.7071067691 0.3535533845 
  endloop
 endfacet
 facet normal 0.089680 0.068814 0.024030
  outer loop
   vertex 0.75 0.4999999702 0.4330127239 
   vertex 0.8660254478 0.4999999702 0 
   vertex 0.6123723984 0.7071067691 0.3535533845 
  endloop
 endfacet
 facet normal 0.073223 0.056186 0.019620
  outer loop
   vertex 0.6123723984 0.7071067691 0.3535533845 
   vertex 0.8660254478 0.4999999702 0 
   vertex 0.7071067691 0.7071067691 0 
  endloop
 endfacet
 facet normal 0.089680 0.068814 -0.024030
  outer loop
   vertex 0.8660254478 0.4999999702 0 
   vertex 0.75 0.4999999702 -0.4330127239 
   vertex 0.7071067691 0.7071067691 0 
  endloop
 endfacet
 facet normal 0.073223 0.056186 -0.019620
  outer loop
   vertex 0.7071067691 0.7071067691 0 
   vertex 0.75 0.4999999702 -0.4330127239 
   vertex 0.6123723984 0.7071067691 -0.3535533845 
  endloop
 endfacet
 facet normal 0.041131 0.073223 -0.041131
  outer loop
   vertex 0.6123723984 0.7071067691 -0.3535533845 
   vertex 0.3535533845 0.7071067691 -0.6123723984 
   vertex 0.4330126941 0.8660253882 -0.25 
  endloop
 endfacet
 facet normal 0.029084 0.051777 -0.029084
  outer loop
   vertex 0.4330126941 0.8660253882 -0.25 
   vertex 0.3535533845 0.7071067691 -0.6123723984 
   vertex 0.25 0.8660253882 -0.4330126941 
  endloop
 endfacet
 facet normal 0.015055 0.073223 -0.056186
  outer loop
   vertex 0.3535533845 0.7071067691 -0.6123723984 
   vertex 0 0.7071067691 -0.7071067691 
   vertex 0.25 0.8660253882 -0.4330126941 
  endloop
 endfacet
 facet normal 0.010646 0.051777 -0.039730
  outer loop
   vertex 0.25 0.8660253882 -0.4330126941 
   vertex 0 0.7071067691 -0.7071067691 
   vertex 0 0.8660253882 -0.5 
  endloop
 endfacet
 facet normal -0.015055 0.073223 -0.056186
  outer loop
   vertex 0 0.7071067691 -0.7071067691 
   vertex -0.3535533845 0.7071067691 -0.6123723984 
   vertex 0 0.8660253882 -0.5 
  endloop
 endfacet
 facet normal -0.010646 0.051777 -0.039730
  outer loop
   vertex 0 0.8660253882 -0.5 
   vertex -0.3535533845 0.7071067691 -0.6123723984 
   vertex -0.25 0.8660253882 -0.4330126941 
  endloop
 endfacet
 facet normal -0.041131 0.073223 -0.041131
  outer loop
   vertex -0.3535533845 0.7071067691 -0.6123723984 
   vertex -0.6123723984 0.7071067691 -0.3535533845 
   vertex -0.25 0.8660253882 -0.4330126941 
  endloop
 endfacet
 facet normal -0.029084 0.051777 -0.029084
  outer loop
   vertex -0.25 0.8660253882 -0.4330126941 
   vertex -0.6123723984 0.7071067691 -0.3535533845 
   vertex -0.4330126941 0.8660253882 -0.25 
  endloop
 endfacet
 facet normal -0.056186 0.073223 -0.015055
  outer loop
   vertex -0.6123723984 0.7071067691 -0.3535533845 
   vertex -0.7071067691 0.7071067691 0 
   vertex -0.4330126941 0.8660253882 -0.25 
  endloop
 endfacet
 facet normal -0.039730 0.051777 -0.010646
  outer loop
   vertex -0.4330126941 0.8660253882 -0.25 
   vertex -0.7071067691 0.7071067691 0 
   vertex -0.5 0.8660253882 0 
  endloop
 endfacet
 facet normal -0.056186 0.073223 0.015055
  outer loop
   vertex -0.7071067691 0.7071067691 0 
   vertex -0.6123723984 0.7071067691 0.3535533845 
   vertex -0.5 0.8660253882 0 
  endloop
 endfacet
 facet normal -0.039730 0.051777 0.010646
  outer loop
   vertex -0.5 0.8660253882 0 
   vertex -0.6123723984 0.7071067691 0.3535533845 
   vertex -0.4330126941 0.8660253882 0.25 
  endloop
 endfacet
 facet normal -0.041131 0.073223 0.041131
  outer loop
   vertex -0.6123723984 0.7071067691 0.3535533845 
   vertex -0.3535533845 0.7071067691 0.6123723984 
   vertex -0.4330126941 0.8660253882 0.25 
  endloop
 endfacet
 facet normal -0.029084 0.051777 0.029084
  outer loop
   vertex -0.4330126941 0.8660253882 0.25 
   vertex -0.3535533845 0.7071067691 0.6123723984 
   vertex -0.25 0.8660253882 0.4330126941 
  endloop
 endfacet
 facet normal -0.015055 0.073223 0.056186
  outer loop
   vertex -0.3535533845 0.7071067691 0.6123723984 
   vertex 0 0.7071067691 0.7071067691 
   vertex -0.25 0.8660253882 0.4330126941 
  endloop
 endfacet
 facet normal -0.010646 0.051777 0.039730
  outer loop
   vertex -0.25 0.8660253882 0.4330126941 
   vertex 0 0.7071067691 0.7071067691 
   vertex 0 0.8660253882 0.5 
  endloop
 endfacet
 facet normal 0.015055 0.073223 0.056186
  outer loop
   vertex 0 0.7071067691 0.7071067691 
   vertex 0.3535533845 0.7071067691 0.6123723984 
   vertex 0 0.8660253882 0.5 
  endloop
 endfacet
 facet normal 0.010646 0.051777 0.039730
  outer loop
   vertex 0 0.8660253882 0.5 
   vertex 0.3535533845 0.7071067691 0.6123723984 
   vertex 0.25 0.8660253882 0.4330126941 
  endloop
 endfacet
 facet normal 0.041131 0.073223 0.041131
  outer loop
   vertex 0.3535533845 0.7071067691 0.6123723984 
   vertex 0.6123723984 0.7071067691 0.3535533845 
   vertex 0.25 0.8660253882 0.4330126941 
  endloop
 endfacet
 facet normal 0.029084 0.051777 0.029084
  outer loop
   vertex 0.25 0.8660253882 0.4330126941 
   vertex 0.6123723984 0.7071067691 0.3535533845 
   vertex 0.4330126941 0.8660253882 0.25 
  endloop
 endfacet
 facet normal 0.056186 0.073223 0.015055
  outer loop
   vertex 0.6123723984 0.7071067691 0.3535533845 
   vertex 0.7071067691 0.7071067691 0 
   vertex 0.4330126941 0.8660253882 0.25 
  endloop
 endfacet
 facet normal 0.039730 0.051777 0.010646
  outer loop
   vertex 0.4330126941 0.8660253882 0.25 
   vertex 0.7071067691 0.7071067691 0 
   vertex 0.5 0.8660253882 0 
  endloop
 endfacet
 facet normal 0.056186 0.073223 -0.015055
  outer loop
   vertex 0.7071067691 0.7071067691 0 
   vertex 0.6123723984 0.7071067691 -0.3535533845 
   vertex 0.5 0.8660253882 0 
  endloop
 endfacet
 facet normal 0.039730 0.051777 -0.010646
  outer loop
   vertex 0.5 0.8660253882 0 
   vertex 0.6123723984 0.7071067691 -0.3535533845 
   vertex 0.4330126941 0.8660253882 -0.25 
  endloop
 endfacet
 facet normal 0.018283 0.060295 -0.018283
  outer loop
   vertex 0.4330126941 0.8660253882 -0.25 
   vertex 0.25 0.8660253882 -0.4330126941 
   vertex 0.2241438627 0.9659258127 -0.1294095218 
  endloop
 endfacet
 facet normal 0.009464 0.031211 -0.009464
  outer loop
   vertex 0.2241438627 0.9659258127 -0.1294095218 
   vertex 0.25 0.8660253882 -0.4330126941 
   vertex 0.1294095218 0.9659258127 -0.2241438627 
  endloop
 endfacet
 facet normal 0.006692 0.060295 -0.024975
  outer loop
   vertex 0.25 0.8660253882 -0.4330126941 
   vertex 0 0.8660253882 -0.5 
   vertex 0.1294095218 0.9659258127 -0.2241438627 
  endloop
 endfacet
 facet normal 0.003464 0.031211 -0.012928
  outer loop
   vertex 0.1294095218 0.9659258127 -0.2241438627 
   vertex 0 0.8660253882 -0.5 
   vertex 0 0.9659258127 -0.2588190436 
  endloop
 endfacet
 facet normal -0.006692 0.060295 -0.024975
  outer loop
   vertex 0 0.8660253882 -0.5 
   vertex -0.25 0.8660253882 -0.4330126941 
   vertex 0 0.9659258127 -0.2588190436 
  endloop
 endfacet
 facet normal -0.003464 0.031211 -0.012928
  outer loop
   vertex 0 0.9659258127 -0.2588190436 
   vertex -0.25 0.8660253882 -0.4330126941 
   vertex -0.1294095218 0.9659258127 -0.2241438627 
  endloop
 endfacet
 facet normal -0.018283 0.060295 -0.018283
  outer loop
   vertex -0.25 0.8660253882 -0.4330126941 
   vertex -0.4330126941 0.8660253882 -0.25 
   vertex -0.1294095218 0.9659258127 -0.2241438627 
  endloop
 endfacet
 facet normal -0.009464 0.031211 -0.009464
  outer loop
   vertex -0.1294095218 0.9659258127 -0.2241438627 
   vertex -0.4330126941 0.8660253882 -0.25 
   vertex -0.2241438627 0.9659258127 -0.1294095218 
  endloop
 endfacet
 facet normal -0.024975 0.060295 -0.006692
  outer loop
   vertex -0.4330126941 0.8660253882 -0.25 
   vertex -0.5 0.8660253882 0 
   vertex -0.2241438627 0.9659258127 -0.1294095218 
  endloop
 endfacet
 facet normal -0.012928 0.031211 -0.003464
  outer loop
   vertex -0.2241438627 0.9659258127 -0.1294095218 
   vertex -0.5 0.8660253882 0 
   vertex -0.2588190436 0.9659258127 0 
  endloop
 endfacet
 facet normal -0.024975 0.060295 0.006692
  outer loop
   vertex -0.5 0.8660253882 0 
   vertex -0.4330126941 0.8660253882 0.25 
   vertex -0.2588190436 0.9659258127 0 
  endloop
 endfacet
 facet normal -0.012928 0.031211 0.003464
  outer loop
   vertex -0.2588190436 0.9659258127 0 
   vertex -0.4330126941 0.8660253882 0.25 
   vertex -0.2241438627 0.9659258127 0.1294095218 
  endloop
 endfacet
 facet normal -0.018283 0.060295 0.018283
  outer loop
   vertex -0.4330126941 0.8660253882 0.25 
   vertex -0.25 0.8660253882 0.4330126941 
   vertex -0.2241438627 0.9659258127 0.1294095218 
  endloop
 endfacet
 facet normal -0.009464 0.031211 0.009464
  outer loop
   vertex -0.2241438627 0.9659258127 0.1294095218 
   vertex -0.25 0.8660253882 0.4330126941 
   vertex -0.1294095218 0.9659258127 0.2241438627 
  endloop
 endfacet
 facet normal -0.006692 0.060295 0.024975
  outer loop
   vertex -0.25 0.8660253882 0.4330126941 
   vertex 0 0.8660253882 0.5 
   vertex -0.1294095218 0.9659258127 0.2241438627 
  endloop
 endfacet
 facet normal -0.003464 0.031211 0.012928
  outer loop
   vertex -0.1294095218 0.9659258127 0.2241438627 
   vertex 0 0.8660253882 0.5 
   vertex 0 0.9659258127 0.2588190436 
  endloop
 endfacet
 facet normal 0.006692 0.060295 0.024975
  outer loop
   vertex 0 0.8660253882 0.5 
   vertex 0.25 0.8660253882 0.4330126941 
   vertex 0 0.9659258127 0.2588190436 
  endloop
 endfacet
 facet normal 0.003464 0.031211 0.012928
  outer loop
   vertex 0 0.9659258127 0.2588190436 
   vertex 0.25 0.8660253882 0.4330126941 
   vertex 0.1294095218 0.9659258127 0.2241438627 
  endloop
 endfacet
 facet normal 0.018283 0.060295 0.018283
  outer loop
   vertex 0.25 0.8660253882 0.4330126941 
   vertex 0.4330126941 0.8660253882 0.25 
   vertex 0.1294095218 0.9659258127 0.2241438627 
  endloop
 endfacet
 facet normal 0.009464 0.031211 0.009464
  outer loop
   vertex 0.1294095218 0.9659258127 0.2241438627 
   vertex 0.4330126941 0.8660253882 0.25 
   vertex 0.2241438627 0.9659258127 0.1294095218 
  endloop
 endfacet
 facet normal 0.024975 0.060295 0.006692
  outer loop
   vertex 0.4330126941 0.8660253882 0.25 
   vertex 0.5 0.8660253882 0 
   vertex 0.2241438627 0.9659258127 0.1294095218 
  endloop
 endfacet
 facet normal 0.012928 0.031211 0.003464
  outer loop
   vertex 0.2241438627 0.9659258127 0.1294095218 
   vertex 0.5 0.8660253882 0 
   vertex 0.2588190436 0.9659258127 0 
  endloop
 endfacet
 facet normal 0.024975 0.060295 -0.006692
  outer loop
   vertex 0.5 0.8660253882 0 
   vertex 0.4330126941 0.8660253882 -0.25 
   vertex 0.2588190436 0.9659258127 0 
  endloop
 endfacet
 facet normal 0.012928 0.031211 -0.003464
  outer loop
   vertex 0.2588190436 0.9659258127 0 
   vertex 0.4330126941 0.8660253882 -0.25 
   vertex 0.2241438627 0.9659258127 -0.1294095218 
  endloop
 endfacet
 facet normal 0.003228 -0.033494 -0.003228
  outer loop
   vertex 0.1294095218 -0.9659258127 -0.2241438627 
   vertex 0.2241438627 -0.9659258127 -0.1294095218 
   vertex 0 -1 0 
  endloop
 endfacet
 facet normal 0.001182 -0.033494 -0.004410
  outer loop
   vertex 0 -0.9659258127 -0.2588190436 
   vertex 0.1294095218 -0.9659258127 -0.2241438627 
   vertex 0 -1 0 
  endloop
 endfacet
 facet normal -0.001182 -0.033494 -0.004410
  outer loop
   vertex -0.1294095218 -0.9659258127 -0.2241438627 
   vertex 0 -0.9659258127 -0.2588190436 
   vertex 0 -1 0 
  endloop
 endfacet
 facet normal -0.003228 -0.033494 -0.003228
  outer loop
   vertex -0.2241438627 -0.9659258127 -0.1294095218 
   vertex -0.1294095218 -0.9659258127 -0.2241438627 
   vertex 0 -1 0 
  endloop
 endfacet
 facet normal -0.004410 -0.033494 -0.001182
  outer loop
   vertex -0.2588190436 -0.9659258127 0 
   vertex -0.2241438627 -0.9659258127 -0.1294095218 
   vertex 0 -1 0 
  endloop
 endfacet
 facet normal -0.004410 -0.033494 0.001182
  outer loop
   vertex -0.2241438627 -0.9659258127 0.1294095218 
   vertex -0.2588190436 -0.9659258127 0 
   vertex 0 -1 0 
  endloop
 endfacet
 facet normal -0.003228 -0.033494 0.003228
  outer loop
   vertex -0.1294095218 -0.9659258127 0.2241438627 
   vertex -0.2241438627 -0.9659258127 0.1294095218 
   vertex 0 -1 0 
  endloop
 endfacet
 facet normal -0.001182 -0.033494 0.004410
  outer loop
   vertex 0 -0.9659258127 0.2588190436 
   vertex -0.1294095218 -0.9659258127 0.2241438627 
   vertex 0 -1 0 
  endloop
 endfacet
 facet normal 0.001182 -0.033494 0.004410
  outer loop
   vertex 0.1294095218 -0.9659258127 0.2241438627 
   vertex 0 -0.9659258127 0.2588190436 
   vertex 0 -1 0 
  endloop
 endfacet
 facet normal 0.003228 -0.033494 0.003228
  outer loop
   vertex 0.2241438627 -0.9659258127 0.1294095218 
   vertex 0.1294095218 -0.9659258127 0.2241438627 
   vertex 0 -1 0 
  endloop
 endfacet
 facet normal 0.004410 -0.033494 0.001182
  outer loop
   vertex 0.2588190436 -0.9659258127 0 
   vertex 0.2241438627 -0.9659258127 0.1294095218 
   vertex 0 -1 0 
  endloop
 endfacet
 facet normal 0.004410 -0.033494 -0.001182
  outer loop
   vertex 0.2241438627 -0.9659258127 -0.1294095218 
   vertex 0.2588190436 -0.9659258127 0 
   vertex 0 -1 0 
  endloop
 endfacet
 facet normal 0.003228 0.033494 -0.003228
  outer loop
   vertex 0.2241438627 0.9659258127 -0.1294095218 
   vertex 0.1294095218 0.9659258127 -0.2241438627 
   vertex 0 1 0 
  endloop
 endfacet
 facet normal 0.001182 0.033494 -0.004410
  outer loop
   vertex 0.1294095218 0.9659258127 -0.2241438627 
   vertex 0 0.9659258127 -0.2588190436 
   vertex 0 1 0 
  endloop
 endfacet
 facet normal -0.001182 0.033494 -0.004410
  outer loop
   vertex 0 0.9659258127 -0.2588190436 
   vertex -0.1294095218 0.9659258127 -0.2241438627 
   vertex 0 1 0 
  endloop
 endfacet
 facet normal -0.003228 0.033494 -0.003228
  outer loop
   vertex -0.1294095218 0.9659258127 -0.2241438627 
   vertex -0.2241438627 0.9659258127 -0.1294095218 
   vertex 0 1 0 
  endloop
 endfacet
 facet normal -0.004410 0.033494 -0.001182
  outer loop
   vertex -0.2241438627 0.9659258127 -0.1294095218 
   vertex -0.2588190436 0.9659258127 0 
   vertex 0 1 0 
  endloop
 endfacet
 facet normal -0.004410 0.033494 0.001182
  outer loop
   vertex -0.2588190436 0.9659258127 0 
   vertex -0.2241438627 0.9659258127 0.1294095218 
   vertex 0 1 0 
  endloop
 endfacet
 facet normal -0.003228 0.033494 0.003228
  outer loop
   vertex -0.2241438627 0.9659258127 0.1294095218 
   vertex -0.1294095218 0.9659258127 0.2241438627 
   vertex 0 1 0 
  endloop
 endfacet
 facet normal -0.001182 0.033494 0.004410
  outer loop
   vertex -0.1294095218 0.9659258127 0.2241438627 
   vertex 0 0.9659258127 0.2588190436 
   vertex 0 1 0 
  endloop
 endfacet
 facet normal 0.001182 0.033494 0.004410
  outer loop
   vertex 0 0.9659258127 0.2588190436 
   vertex 0.1294095218 0.9659258127 0.2241438627 
   vertex 0 1 0 
  endloop
 endfacet
 facet normal 0.003228 0.033494 0.003228
  outer loop
   vertex 0.1294095218 0.9659258127 0.2241438627 
   vertex 0.2241438627 0.9659258127 0.1294095218 
   vertex 0 1 0 
  endloop
 endfacet
 facet normal 0.004410 0.033494 0.001182
  outer loop
   vertex 0.2241438627 0.9659258127 0.1294095218 
   vertex 0.2588190436 0.9659258127 0 
   vertex 0 1 0 
  endloop
 endfacet
 facet normal 0.004410 0.033494 -0.001182
  outer loop
   vertex 0.2588190436 0.9659258127 0 
   vertex 0.2241438627 0.9659258127 -0.1294095218 
   vertex 0 1 0 
  endloop
 endfacet
 facet normal 0.005886 -0.003331 -0.005886
  outer loop
   vertex 0.75 -0.4999999702 -0.4330127239 
   vertex 0.4330127239 -0.4999999702 -0.75 
   vertex 0.7424489856 -0.481431067 -0.4510704875 
  endloop
 endfacet
 facet normal 0.005411 -0.003061 -0.005411
  outer loop
   vertex 0.7424489856 -0.481431067 -0.4510704875 
   vertex 0.4330127239 -0.4999999702 -0.75 
   vertex 0.4510704875 -0.481431067 -0.7424489856 
  endloop
 endfacet
 facet normal 0.003428 -0.001939 -0.003428
  outer loop
   vertex 0.4829629064 -0.2588190734 -0.8365162611 
   vertex 0.4933291674 -0.2773879766 -0.8156431913 
   vertex 0.4330127239 -0.4999999702 -0.75 
  endloop
 endfacet
 facet normal 0.002900 -0.001641 -0.002900
  outer loop
   vertex 0.4330127239 -0.4999999702 -0.75 
   vertex 0.4933291674 -0.2773879766 -0.8156431913 
   vertex 0.4510704875 -0.481431067 -0.7424489856 
  endloop
 endfacet
 facet normal 0.006565 -0.003715 -0.006565
  outer loop
   vertex 0.4829629064 -0.2588190734 -0.8365162611 
   vertex 0.8365162611 -0.2588190734 -0.4829629064 
   vertex 0.4933291674 -0.2773879766 -0.8156431913 
  endloop
 endfacet
 facet normal 0.005985 -0.003386 -0.005985
  outer loop
   vertex 0.4933291674 -0.2773879766 -0.8156431913 
   vertex 0.8365162611 -0.2588190734 -0.4829629064 
   vertex 0.8156431913 -0.2773879766 -0.4933291674 
  endloop
 endfacet
 facet normal 0.003428 -0.001939 -0.003428
  outer loop
   vertex 0.8365162611 -0.2588190734 -0.4829629064 
   vertex 0.75 -0.4999999702 -0.4330127239 
   vertex 0.8156431913 -0.2773879766 -0.4933291674 
  endloop
 endfacet
 facet normal 0.002900 -0.001641 -0.002900
  outer loop
   vertex 0.8156431913 -0.2773879766 -0.4933291674 
   vertex 0.75 -0.4999999702 -0.4330127239 
   vertex 0.7424489856 -0.481431067 -0.4510704875 
  endloop
 endfacet
 facet normal -0.005886 -0.003331 -0.005886
  outer loop
   vertex -0.4330127239 -0.4999999702 -0.75 
   vertex -0.75 -0.4999999702 -0.4330127239 
   vertex -0.4510704875 -0.481431067 -0.7424489856 
  endloop
 endfacet
 facet normal -0.005411 -0.003061 -0.005411
  outer loop
   vertex -0.4510704875 -0.481431067 -0.7424489856 
   vertex -0.75 -0.4999999702 -0.4330127239 
   vertex -0.7424489856 -0.481431067 -0.4510704875 
  endloop
 endfacet
 facet normal -0.003428 -0.001939 -0.003428
  outer loop
   vertex -0.8365162611 -0.2588190734 -0.4829629064 
   vertex -0.8156431913 -0.2773879766 -0.4933291674 
   vertex -0.75 -0.4999999702 -0.4330127239 
  endloop
 endfacet
 facet normal -0.002900 -0.001641 -0.002900
  outer loop
   vertex -0.75 -0.4999999702 -0.4330127239 
   vertex -0.8156431913 -0.2773879766 -0.4933291674 
   vertex -0.7424489856 -0.481431067 -0.4510704875 
  endloop
 endfacet
 facet normal -0.006565 -0.003715 -0.006565
  outer loop
   vertex -0.8365162611 -0.2588190734 -0.4829629064 
   vertex -0.4829629064 -0.2588190734 -0.8365162611 
   vertex -0.8156431913 -0.2773879766 -0.4933291674 
  endloop
 endfacet
 facet normal -0.005985 -0.003387 -0.005985
  outer loop
   vertex -0.8156431913 -0.2773879766 -0.4933291674 
   vertex -0.4829629064 -0.2588190734 -0.8365162611 
   vertex -0.4933291674 -0.2773879766 -0.8156431913 
  endloop
 endfacet
 facet normal -0.003428 -0.001939 -0.003428
  outer loop
   vertex -0.4829629064 -0.2588190734 -0.8365162611 
   vertex -0.4330127239 -0.4999999702 -0.75 
   vertex -0.4933291674 -0.2773879766 -0.8156431913 
  endloop
 endfacet
 facet normal -0.002900 -0.001641 -0.002900
  outer loop
   vertex -0.4933291674 -0.2773879766 -0.8156431913 
   vertex -0.4330127239 -0.4999999702 -0.75 
   vertex -0.4510704875 -0.481431067 -0.7424489856 
  endloop
 endfacet
 facet normal -0.005886 -0.003331 0.005886
  outer loop
   vertex -0.75 -0.4999999702 0.4330127239 
   vertex -0.4330127239 -0.4999999702 0.75 
   vertex -0.7424489856 -0.481431067 0.4510704875 
  endloop
 endfacet
 facet normal -0.005411 -0.003061 0.005411
  outer loop
   vertex -0.7424489856 -0.481431067 0.4510704875 
   vertex -0.4330127239 -0.4999999702 0.75 
   vertex -0.4510704875 -0.481431067 0.7424489856 
  endloop
 endfacet
 facet normal -0.003428 -0.001939 0.003428
  outer loop
   vertex -0.4829629064 -0.2588190734 0.8365162611 
   vertex -0.4933291674 -0.2773879766 0.8156431913 
   vertex -0.4330127239 -0.4999999702 0.75 
  endloop
 endfacet
 facet normal -0.002900 -0.001641 0.002900
  outer loop
   vertex -0.4330127239 -0.4999999702 0.75 
   vertex -0.4933291674 -0.2773879766 0.8156431913 
   vertex -0.4510704875 -0.481431067 0.7424489856 
  endloop
 endfacet
 facet normal -0.006565 -0.003715 0.006565
  outer loop
   vertex -0.4829629064 -0.2588190734 0.8365162611 
   vertex -0.8365162611 -0.2588190734 0.4829629064 
   vertex -0.4933291674 -0.2773879766 0.8156431913 
  endloop
 endfacet
 facet normal -0.005985 -0.003386 0.005985
  outer loop
   vertex -0.4933291674 -0.2773879766 0.8156431913 
   vertex -0.8365162611 -0.2588190734 0.4829629064 
   vertex -0.8156431913 -0.2773879766 0.4933291674 
  endloop
 endfacet
 facet normal -0.003428 -0.001939 0.003428
  outer loop
   vertex -0.8365162611 -0.2588190734 0.4829629064 
   vertex -0.75 -0.4999999702 0.4330127239 
   vertex -0.8156431913 -0.2773879766 0.4933291674 
  endloop
 endfacet
 facet normal -0.002900 -0.001641 0.002900
  outer loop
   vertex -0.8156431913 -0.2773879766 0.4933291674 
   vertex -0.75 -0.4999999702 0.4330127239 
   vertex -0.7424489856 -0.481431067 0.4510704875 
  endloop
 endfacet
 facet normal 0.005886 -0.003331 0.005886
  outer loop
   vertex 0.4330127239 -0.4999999702 0.75 
   vertex 0.75 -0.4999999702 0.4330127239 
   vertex 0.4510704875 -0.481431067 0.7424489856 
  endloop
 endfacet
 facet normal 0.005411 -0.003061 0.005411
  outer loop
   vertex 0.4510704875 -0.481431067 0.7424489856 
   vertex 0.75 -0.4999999702 0.4330127239 
   vertex 0.7424489856 -0.481431067 0.4510704875 
  endloop
 endfacet
 facet normal 0.003428 -0.001939 0.003428
  outer loop
   vertex 0.8365162611 -0.2588190734 0.4829629064 
   vertex 0.8156431913 -0.2773879766 0.4933291674 
   vertex 0.75 -0.4999999702 0.4330127239 
  endloop
 endfacet
 facet normal 0.002900 -0.001641 0.002900
  outer loop
   vertex 0.75 -0.4999999702 0.4330127239 
   vertex 0.8156431913 -0.2773879766 0.4933291674 
   vertex 0.7424489856 -0.481431067 0.4510704875 
  endloop
 endfacet
 facet normal 0.006565 -0.003715 0.006565
  outer loop
   vertex 0.8365162611 -0.2588190734 0.4829629064 
   vertex 0.4829629064 -0.2588190734 0.8365162611 
   vertex 0.8156431913 -0.2773879766 0.4933291674 
  endloop
 endfacet
 facet normal 0.005985 -0.003387 0.005985
  outer loop
   vertex 0.8156431913 -0.2773879766 0.4933291674 
   vertex 0.4829629064 -0.2588190734 0.8365162611 
   vertex 0.4933291674 -0.2773879766 0.8156431913 
  endloop
 endfacet
 facet normal 0.003428 -0.001939 0.003428
  outer loop
   vertex 0.4829629064 -0.2588190734 0.8365162611 
   vertex 0.4330127239 -0.4999999702 0.75 
   vertex 0.4933291674 -0.2773879766 0.8156431913 
  endloop
 endfacet
 facet normal 0.002900 -0.001641 0.002900
  outer loop
   vertex 0.4933291674 -0.2773879766 0.8156431913 
   vertex 0.4330127239 -0.4999999702 0.75 
   vertex 0.4510704875 -0.481431067 0.7424489856 
  endloop
 endfacet
 facet normal 0.006565 0.003715 -0.006565
  outer loop
   vertex 0.8365162611 0.2588190734 -0.4829629064 
   vertex 0.4829629064 0.2588190734 -0.8365162611 
   vertex 0.8156431913 0.2773879766 -0.4933291674 
  endloop
 endfacet
 facet normal 0.005985 0.003387 -0.005985
  outer loop
   vertex 0.8156431913 0.2773879766 -0.4933291674 
   vertex 0.4829629064 0.2588190734 -0.8365162611 
   vertex 0.4933291674 0.2773879766 -0.8156431913 
  endloop
 endfacet
 facet normal 0.003428 0.001939 -0.003428
  outer loop
   vertex 0.4829629064 0.2588190734 -0.8365162611 
   vertex 0.4330127239 0.4999999702 -0.75 
   vertex 0.4933291674 0.2773879766 -0.8156431913 
  endloop
 endfacet
 facet normal 0.002900 0.001641 -0.002900
  outer loop
   vertex 0.4933291674 0.2773879766 -0.8156431913 
   vertex 0.4330127239 0.4999999702 -0.75 
   vertex 0.4510704875 0.481431067 -0.7424489856 
  endloop
 endfacet
 facet normal 0.005886 0.003331 -0.005886
  outer loop
   vertex 0.4330127239 0.4999999702 -0.75 
   vertex 0.75 0.4999999702 -0.4330127239 
   vertex 0.4510704875 0.481431067 -0.7424489856 
  endloop
 endfacet
 facet normal 0.005411 0.003061 -0.005411
  outer loop
   vertex 0.4510704875 0.481431067 -0.7424489856 
   vertex 0.75 0.4999999702 -0.4330127239 
   vertex 0.7424489856 0.481431067 -0.4510704875 
  endloop
 endfacet
 facet normal 0.003428 0.001939 -0.003428
  outer loop
   vertex 0.8365162611 0.2588190734 -0.4829629064 
   vertex 0.8156431913 0.2773879766 -0.4933291674 
   vertex 0.75 0.4999999702 -0.4330127239 
  endloop
 endfacet
 facet normal 0.002900 0.001641 -0.002900
  outer loop
   vertex 0.75 0.4999999702 -0.4330127239 
   vertex 0.8156431913 0.2773879766 -0.4933291674 
   vertex 0.7424489856 0.481431067 -0.4510704875 
  endloop
 endfacet
 facet normal -0.006565 0.003715 -0.006565
  outer loop
   vertex -0.4829629064 0.2588190734 -0.8365162611 
   vertex -0.8365162611 0.2588190734 -0.4829629064 
   vertex -0.4933291674 0.2773879766 -0.8156431913 
  endloop
 endfacet
 facet normal -0.005985 0.003386 -0.005985
  outer loop
   vertex -0.4933291674 0.2773879766 -0.8156431913 
   vertex -0.8365162611 0.2588190734 -0.4829629064 
   vertex -0.8156431913 0.2773879766 -0.4933291674 
  endloop
 endfacet
 facet normal -0.003428 0.001939 -0.003428
  outer loop
   vertex -0.8365162611 0.2588190734 -0.4829629064 
   vertex -0.75 0.4999999702 -0.4330127239 
   vertex -0.8156431913 0.2773879766 -0.4933291674 
  endloop
 endfacet
 facet normal -0.002900 0.001641 -0.002900
  outer loop
   vertex -0.8156431913 0.2773879766 -0.4933291674 
   vertex -0.75 0.4999999702 -0.4330127239 
   vertex -0.7424489856 0.481431067 -0.4510704875 
  endloop
 endfacet
 facet normal -0.005886 0.003331 -0.005886
  outer loop
   vertex -0.75 0.4999999702 -0.4330127239 
   vertex -0.4330127239 0.4999999702 -0.75 
   vertex -0.7424489856 0.481431067 -0.4510704875 
  endloop
 endfacet
 facet normal -0.005411 0.003061 -0.005411
  outer loop
   vertex -0.7424489856 0.481431067 -0.4510704875 
   vertex -0.4330127239 0.4999999702 -0.75 
   vertex -0.4510704875 0.481431067 -0.7424489856 
  endloop
 endfacet
 facet normal -0.003428 0.001939 -0.003428
  outer loop
   vertex -0.4829629064 0.2588190734 -0.8365162611 
   vertex -0.4933291674 0.2773879766 -0.8156431913 
   vertex -0.4330127239 0.4999999702 -0.75 
  endloop
 endfacet
 facet normal -0.002900 0.001641 -0.002900
  outer loop
   vertex -0.4330127239 0.4999999702 -0.75 
   vertex -0.4933291674 0.2773879766 -0.8156431913 
   vertex -0.4510704875 0.481431067 -0.7424489856 
  endloop
 endfacet
 facet normal -0.006565 0.003715 0.006565
  outer loop
   vertex -0.8365162611 0.2588190734 0.4829629064 
   vertex -0.4829629064 0.2588190734 0.8365162611 
   vertex -0.8156431913 0.2773879766 0.4933291674 
  endloop
 endfacet
 facet normal -0.005985 0.003387 0.005985
  outer loop
   vertex -0.8156431913 0.2773879766 0.4933291674 
   vertex -0.4829629064 0.2588190734 0.8365162611 
   vertex -0.4933291674 0.2773879766 0.8156431913 
  endloop
 endfacet
 facet normal -0.003428 0.001939 0.003428
  outer loop
   vertex -0.4829629064 0.2588190734 0.8365162611 
   vertex -0.4330127239 0.4999999702 0.75 
   vertex -0.4933291674 0.2773879766 0.8156431913 
  endloop
 endfacet
 facet normal -0.002900 0.001641 0.002900
  outer loop
   vertex -0.4933291674 0.2773879766 0.8156431913 
   vertex -0.4330127239 0.4999999702 0.75 
   vertex -0.4510704875 0.481431067 0.7424489856 
  endloop
 endfacet
 facet normal -0.005886 0.003331 0.005886
  outer loop
   vertex -0.4330127239 0.4999999702 0.75 
   vertex -0.75 0.4999999702 0.4330127239 
   vertex -0.4510704875 0.481431067 0.7424489856 
  endloop
 endfacet
 facet normal -0.005411 0.003061 0.005411
  outer loop
   vertex -0.4510704875 0.481431067 0.7424489856 
   vertex -0.75 0.4999999702 0.4330127239 
   vertex -0.7424489856 0.481431067 0.4510704875 
  endloop
 endfacet
 facet normal -0.003428 0.001939 0.003428
  outer loop
   vertex -0.8365162611 0.2588190734 0.4829629064 
   vertex -0.8156431913 0.2773879766 0.4933291674 
   vertex -0.75 0.4999999702 0.4330127239 
  endloop
 endfacet
 facet normal -0.002900 0.001641 0.002900
  outer loop
   vertex -0.75 0.4999999702 0.4330127239 
   vertex -0.8156431913 0.2773879766 0.4933291674 
   vertex -0.7424489856 0.481431067 0.4510704875 
  endloop
 endfacet
 facet normal 0.006565 0.003715 0.006565
  outer loop
   vertex 0.4829629064 0.2588190734 0.8365162611 
   vertex 0.8365162611 0.2588190734 0.4829629064 
   vertex 0.4933291674 0.2773879766 0.8156431913 
  endloop
 endfacet
 facet normal 0.005985 0.003386 0.005985
  outer loop
   vertex 0.4933291674 0.2773879766 0.8156431913 
   vertex 0.8365162611 0.2588190734 0.4829629064 
   vertex 0.8156431913 0.2773879766 0.4933291674 
  endloop
 endfacet
 facet normal 0.003428 0.001939 0.003428
  outer loop
   vertex 0.8365162611 0.2588190734 0.4829629064 
   vertex 0.75 0.4999999702 0.4330127239 
   vertex 0.8156431913 0.2773879766 0.4933291674 
  endloop
 endfacet
 facet normal 0.002900 0.001641 0.002900
  outer loop
   vertex 0.8156431913 0.2773879766 0.4933291674 
   vertex 0.75 0.4999999702 0.4330127239 
   vertex 0.7424489856 0.481431067 0.4510704875 
  endloop
 endfacet
 facet normal 0.005886 0.003331 0.005886
  outer loop
   vertex 0.75 0.4999999702 0.4330127239 
   vertex 0.4330127239 0.4999999702 0.75 
   vertex 0.7424489856 0.481431067 0.4510704875 
  endloop
 endfacet
 facet normal 0.005411 0.003061 0.005411
  outer loop
   vertex 0.7424489856 0.481431067 0.4510704875 
   vertex 0.4330127239 0.4999999702 0.75 
   vertex 0.4510704875 0.481431067 0.7424489856 
  endloop
 endfacet
 facet normal 0.003428 0.001939 0.003428
  outer loop
   vertex 0.4829629064 0.2588190734 0.8365162611 
   vertex 0.4933291674 0.2773879766 0.8156431913 
   vertex 0.4330127239 0.4999999702 0.75 
  endloop
 endfacet
 facet normal 0.002900 0.001641 0.002900
  outer loop
   vertex 0.4330127239 0.4999999702 0.75 
   vertex 0.4933291674 0.2773879766 0.8156431913 
   vertex 0.4510704875 0.481431067 0.7424489856 
  endloop
 endfacet
 facet normal -0.006072 -0.021462 0.006072
  outer loop
   vertex 0.7424489856 -0.481431067 -0.4510704875 
   vertex 0.4510704875 -0.481431067 -0.7424489856 
   vertex 0.7792765498 -0.5022690892 -0.4878980517 
  endloop
 endfacet
 facet normal -0.006072 -0.021462 0.006072
  outer loop
   vertex 0.7792765498 -0.5022690892 -0.4878980517 
   vertex 0.4510704875 -0.481431067 -0.7424489856 
   vertex 0.4878980517 -0.5022690892 -0.7792765498 
  endloop
 endfacet
 facet normal -0.009040 -0.001139 -0.008395
  outer loop
   vertex 0.4510704875 -0.481431067 -0.7424489856 
   vertex 0.4933291674 -0.2773879766 -0.8156431913 
   vertex 0.4878980517 -0.5022690892 -0.7792765498 
  endloop
 endfacet
 facet normal -0.009040 -0.001139 -0.008395
  outer loop
   vertex 0.4878980517 -0.5022690892 -0.7792765498 
   vertex 0.4933291674 -0.2773879766 -0.8156431913 
   vertex 0.5301567316 -0.2982259989 -0.8524707556 
  endloop
 endfacet
 facet normal 0.006716 0.023740 -0.006716
  outer loop
   vertex 0.4933291674 -0.2773879766 -0.8156431913 
   vertex 0.8156431913 -0.2773879766 -0.4933291674 
   vertex 0.5301567316 -0.2982259989 -0.8524707556 
  endloop
 endfacet
 facet normal 0.006716 0.023740 -0.006716
  outer loop
   vertex 0.5301567316 -0.2982259989 -0.8524707556 
   vertex 0.8156431913 -0.2773879766 -0.4933291674 
   vertex 0.8524707556 -0.2982259989 -0.5301567316 
  endloop
 endfacet
 facet normal 0.008395 -0.001139 0.009040
  outer loop
   vertex 0.8156431913 -0.2773879766 -0.4933291674 
   vertex 0.7424489856 -0.481431067 -0.4510704875 
   vertex 0.8524707556 -0.2982259989 -0.5301567316 
  endloop
 endfacet
 facet normal 0.008395 -0.001139 0.009040
  outer loop
   vertex 0.8524707556 -0.2982259989 -0.5301567316 
   vertex 0.7424489856 -0.481431067 -0.4510704875 
   vertex 0.7792765498 -0.5022690892 -0.4878980517 
  endloop
 endfacet
 facet normal 0.006072 -0.021461 0.006072
  outer loop
   vertex -0.4510704875 -0.481431067 -0.7424489856 
   vertex -0.7424489856 -0.481431067 -0.4510704875 
   vertex -0.4878980517 -0.5022690892 -0.7792765498 
  endloop
 endfacet
 facet normal 0.006072 -0.021462 0.006072
  outer loop
   vertex -0.4878980517 -0.5022690892 -0.7792765498 
   vertex -0.7424489856 -0.481431067 -0.4510704875 
   vertex -0.7792765498 -0.5022690892 -0.4878980517 
  endloop
 endfacet
 facet normal -0.008395 -0.001139 0.009040
  outer loop
   vertex -0.7424489856 -0.481431067 -0.4510704875 
   vertex -0.8156431913 -0.2773879766 -0.4933291674 
   vertex -0.7792765498 -0.5022690892 -0.4878980517 
  endloop
 endfacet
 facet normal -0.008395 -0.001139 0.009040
  outer loop
   vertex -0.7792765498 -0.5022690892 -0.4878980517 
   vertex -0.8156431913 -0.2773879766 -0.4933291674 
   vertex -0.8524707556 -0.2982259989 -0.5301567316 
  endloop
 endfacet
 facet normal -0.006716 0.023740 -0.006716
  outer loop
   vertex -0.8156431913 -0.2773879766 -0.4933291674 
   vertex -0.4933291674 -0.2773879766 -0.8156431913 
   vertex -0.8524707556 -0.2982259989 -0.5301567316 
  endloop
 endfacet
 facet normal -0.006716 0.023740 -0.006716
  outer loop
   vertex -0.8524707556 -0.2982259989 -0.5301567316 
   vertex -0.4933291674 -0.2773879766 -0.8156431913 
   vertex -0.5301567316 -0.2982259989 -0.8524707556 
  endloop
 endfacet
 facet normal 0.009040 -0.001139 -0.008395
  outer loop
   vertex -0.4933291674 -0.2773879766 -0.8156431913 
   vertex -0.4510704875 -0.481431067 -0.7424489856 
   vertex -0.5301567316 -0.2982259989 -0.8524707556 
  endloop
 endfacet
 facet normal 0.009040 -0.001139 -0.008395
  outer loop
   vertex -0.5301567316 -0.2982259989 -0.8524707556 
   vertex -0.4510704875 -0.481431067 -0.7424489856 
   vertex -0.4878980517 -0.5022690892 -0.7792765498 
  endloop
 endfacet
 facet normal 0.006072 -0.021462 -0.006072
  outer loop
   vertex -0.7424489856 -0.481431067 0.4510704875 
   vertex -0.4510704875 -0.481431067 0.7424489856 
   vertex -0.7792765498 -0.5022690892 0.4878980517 
  endloop
 endfacet
 facet normal 0.006072 -0.021462 -0.006072
  outer loop
   vertex -0.7792765498 -0.5022690892 0.4878980517 
   vertex -0.4510704875 -0.481431067 0.7424489856 
   vertex -0.4878980517 -0.5022690892 0.7792765498 
  endloop
 endfacet
 facet normal 0.009040 -0.001139 0.008395
  outer loop
   vertex -0.4510704875 -0.481431067 0.7424489856 
   vertex -0.4933291674 -0.2773879766 0.8156431913 
   vertex -0.4878980517 -0.5022690892 0.7792765498 
  endloop
 endfacet
 facet normal 0.009040 -0.001139 0.008395
  outer loop
   vertex -0.4878980517 -0.5022690892 0.7792765498 
   vertex -0.4933291674 -0.2773879766 0.8156431913 
   vertex -0.5301567316 -0.2982259989 0.8524707556 
  endloop
 endfacet
 facet normal -0.006716 0.023740 0.006716
  outer loop
   vertex -0.4933291674 -0.2773879766 0.8156431913 
   vertex -0.8156431913 -0.2773879766 0.4933291674 
   vertex -0.5301567316 -0.2982259989 0.8524707556 
  endloop
 endfacet
 facet normal -0.006716 0.023740 0.006716
  outer loop
   vertex -0.5301567316 -0.2982259989 0.8524707556 
   vertex -0.8156431913 -0.2773879766 0.4933291674 
   vertex -0.8524707556 -0.2982259989 0.5301567316 
  endloop
 endfacet
 facet normal -0.008395 -0.001139 -0.009040
  outer loop
   vertex -0.8156431913 -0.2773879766 0.4933291674 
   vertex -0.7424489856 -0.481431067 0.4510704875 
   vertex -0.8524707556 -0.2982259989 0.5301567316 
  endloop
 endfacet
 facet normal -0.008395 -0.001139 -0.009040
  outer loop
   vertex -0.8524707556 -0.2982259989 0.5301567316 
   vertex -0.7424489856 -0.481431067 0.4510704875 
   vertex -0.7792765498 -0.5022690892 0.4878980517 
  endloop
 endfacet
 facet normal -0.006072 -0.021461 -0.006072
  outer loop
   vertex 0.4510704875 -0.481431067 0.7424489856 
   vertex 0.7424489856 -0.481431067 0.4510704875 
   vertex 0.4878980517 -0.5022690892 0.7792765498 
  endloop
 endfacet
 facet normal -0.006072 -0.021462 -0.006072
  outer loop
   vertex 0.4878980517 -0.5022690892 0.7792765498 
   vertex 0.7424489856 -0.481431067 0.4510704875 
   vertex 0.7792765498 -0.5022690892 0.4878980517 
  endloop
 endfacet
 facet normal 0.008395 -0.001139 -0.009040
  outer loop
   vertex 0.7424489856 -0.481431067 0.4510704875 
   vertex 0.8156431913 -0.2773879766 0.4933291674 
   vertex 0.7792765498 -0.5022690892 0.4878980517 
  endloop
 endfacet
 facet normal 0.008395 -0.001139 -0.009040
  outer loop
   vertex 0.7792765498 -0.5022690892 0.4878980517 
   vertex 0.8156431913 -0.2773879766 0.4933291674 
   vertex 0.8524707556 -0.2982259989 0.5301567316 
  endloop
 endfacet
 facet normal 0.006716 0.023740 0.006716
  outer loop
   vertex 0.8156431913 -0.2773879766 0.4933291674 
   vertex 0.4933291674 -0.2773879766 0.8156431913 
   vertex 0.8524707556 -0.2982259989 0.5301567316 
  endloop
 endfacet
 facet normal 0.006716 0.023740 0.006716
  outer loop
   vertex 0.8524707556 -0.2982259989 0.5301567316 
   vertex 0.4933291674 -0.2773879766 0.8156431913 
   vertex 0.5301567316 -0.2982259989 0.8524707556 
  endloop
 endfacet
 facet normal -0.009040 -0.001139 0.008395
  outer loop
   vertex 0.4933291674 -0.2773879766 0.8156431913 
   vertex 0.4510704875 -0.481431067 0.7424489856 
   vertex 0.5301567316 -0.2982259989 0.8524707556 
  endloop
 endfacet
 facet normal -0.009040 -0.001139 0.008395
  outer loop
   vertex 0.5301567316 -0.2982259989 0.8524707556 
   vertex 0.4510704875 -0.481431067 0.7424489856 
   vertex 0.4878980517 -0.5022690892 0.7792765498 
  endloop
 endfacet
 facet normal 0.006716 -0.023740 -0.006716
  outer loop
   vertex 0.8156431913 0.2773879766 -0.4933291674 
   vertex 0.4933291674 0.2773879766 -0.8156431913 
   vertex 0.8524707556 0.2982259989 -0.5301567316 
  endloop
 endfacet
 facet normal 0.006716 -0.023740 -0.006716
  outer loop
   vertex 0.8524707556 0.2982259989 -0.5301567316 
   vertex 0.4933291674 0.2773879766 -0.8156431913 
   vertex 0.5301567316 0.2982259989 -0.8524707556 
  endloop
 endfacet
 facet normal -0.009040 0.001139 -0.008395
  outer loop
   vertex 0.4933291674 0.2773879766 -0.8156431913 
   vertex 0.4510704875 0.481431067 -0.7424489856 
   vertex 0.5301567316 0.2982259989 -0.8524707556 
  endloop
 endfacet
 facet normal -0.009040 0.001139 -0.008395
  outer loop
   vertex 0.5301567316 0.2982259989 -0.8524707556 
   vertex 0.4510704875 0.481431067 -0.7424489856 
   vertex 0.4878980517 0.5022690892 -0.7792765498 
  endloop
 endfacet
 facet normal -0.006072 0.021461 0.006072
  outer loop
   vertex 0.4510704875 0.481431067 -0.7424489856 
   vertex 0.7424489856 0.481431067 -0.4510704875 
   vertex 0.4878980517 0.5022690892 -0.7792765498 
  endloop
 endfacet
 facet normal -0.006072 0.021462 0.006072
  outer loop
   vertex 0.4878980517 0.5022690892 -0.7792765498 
   vertex 0.7424489856 0.481431067 -0.4510704875 
   vertex 0.7792765498 0.5022690892 -0.4878980517 
  endloop
 endfacet
 facet normal 0.008395 0.001139 0.009040
  outer loop
   vertex 0.7424489856 0.481431067 -0.4510704875 
   vertex 0.8156431913 0.2773879766 -0.4933291674 
   vertex 0.7792765498 0.5022690892 -0.4878980517 
  endloop
 endfacet
 facet normal 0.008395 0.001139 0.009040
  outer loop
   vertex 0.7792765498 0.5022690892 -0.4878980517 
   vertex 0.8156431913 0.2773879766 -0.4933291674 
   vertex 0.8524707556 0.2982259989 -0.5301567316 
  endloop
 endfacet
 facet normal -0.006716 -0.023740 -0.006716
  outer loop
   vertex -0.4933291674 0.2773879766 -0.8156431913 
   vertex -0.8156431913 0.2773879766 -0.4933291674 
   vertex -0.5301567316 0.2982259989 -0.8524707556 
  endloop
 endfacet
 facet normal -0.006716 -0.023740 -0.006716
  outer loop
   vertex -0.5301567316 0.2982259989 -0.8524707556 
   vertex -0.8156431913 0.2773879766 -0.4933291674 
   vertex -0.8524707556 0.2982259989 -0.5301567316 
  endloop
 endfacet
 facet normal -0.008395 0.001139 0.009040
  outer loop
   vertex -0.8156431913 0.2773879766 -0.4933291674 
   vertex -0.7424489856 0.481431067 -0.4510704875 
   vertex -0.8524707556 0.2982259989 -0.5301567316 
  endloop
 endfacet
 facet normal -0.008395 0.001139 0.009040
  outer loop
   vertex -0.8524707556 0.2982259989 -0.5301567316 
   vertex -0.7424489856 0.481431067 -0.4510704875 
   vertex -0.7792765498 0.5022690892 -0.4878980517 
  endloop
 endfacet
 facet normal 0.006072 0.021462 0.006072
  outer loop
   vertex -0.7424489856 0.481431067 -0.4510704875 
   vertex -0.4510704875 0.481431067 -0.7424489856 
   vertex -0.7792765498 0.5022690892 -0.4878980517 
  endloop
 endfacet
 facet normal 0.006072 0.021462 0.006072
  outer loop
   vertex -0.7792765498 0.5022690892 -0.4878980517 
   vertex -0.4510704875 0.481431067 -0.7424489856 
   vertex -0.4878980517 0.5022690892 -0.7792765498 
  endloop
 endfacet
 facet normal 0.009040 0.001139 -0.008395
  outer loop
   vertex -0.4510704875 0.481431067 -0.7424489856 
   vertex -0.4933291674 0.2773879766 -0.8156431913 
   vertex -0.4878980517 0.5022690892 -0.7792765498 
  endloop
 endfacet
 facet normal 0.009040 0.001139 -0.008395
  outer loop
   vertex -0.4878980517 0.5022690892 -0.7792765498 
   vertex -0.4933291674 0.2773879766 -0.8156431913 
   vertex -0.5301567316 0.2982259989 -0.8524707556 
  endloop
 endfacet
 facet normal -0.006716 -0.023740 0.006716
  outer loop
   vertex -0.8156431913 0.2773879766 0.4933291674 
   vertex -0.4933291674 0.2773879766 0.8156431913 
   vertex -0.8524707556 0.2982259989 0.5301567316 
  endloop
 endfacet
 facet normal -0.006716 -0.023740 0.006716
  outer loop
   vertex -0.8524707556 0.2982259989 0.5301567316 
   vertex -0.4933291674 0.2773879766 0.8156431913 
   vertex -0.5301567316 0.2982259989 0.8524707556 
  endloop
 endfacet
 facet normal 0.009040 0.001139 0.008395
  outer loop
   vertex -0.4933291674 0.2773879766 0.8156431913 
   vertex -0.4510704875 0.481431067 0.7424489856 
   vertex -0.5301567316 0.2982259989 0.8524707556 
  endloop
 endfacet
 facet normal 0.009040 0.001139 0.008395
  outer loop
   vertex -0.5301567316 0.2982259989 0.8524707556 
   vertex -0.4510704875 0.481431067 0.7424489856 
   vertex -0.4878980517 0.5022690892 0.7792765498 
  endloop
 endfacet
 facet normal 0.006072 0.021461 -0.006072
  outer loop
   vertex -0.4510704875 0.481431067 0.7424489856 
   vertex -0.7424489856 0.481431067 0.4510704875 
   vertex -0.4878980517 0.5022690892 0.7792765498 
  endloop
 endfacet
 facet normal 0.006072 0.021462 -0.006072
  outer loop
   vertex -0.4878980517 0.5022690892 0.7792765498 
   vertex -0.7424489856 0.481431067 0.4510704875 
   vertex -0.7792765498 0.5022690892 0.4878980517 
  endloop
 endfacet
 facet normal -0.008395 0.001139 -0.009040
  outer loop
   vertex -0.7424489856 0.481431067 0.4510704875 
   vertex -0.8156431913 0.2773879766 0.4933291674 
   vertex -0.7792765498 0.5022690892 0.4878980517 
  endloop
 endfacet
 facet normal -0.008395 0.001139 -0.009040
  outer loop
   vertex -0.7792765498 0.5022690892 0.4878980517 
   vertex -0.8156431913 0.2773879766 0.4933291674 
   vertex -0.8524707556 0.2982259989 0.5301567316 
  endloop
 endfacet
 facet normal 0.006716 -0.023740 0.006716
  outer loop
   vertex 0.4933291674 0.2773879766 0.8156431913 
   vertex 0.8156431913 0.2773879766 0.4933291674 
   vertex 0.5301567316 0.2982259989 0.8524707556 
  endloop
 endfacet
 facet normal 0.006716 -0.023740 0.006716
  outer loop
   vertex 0.5301567316 0.2982259989 0.8524707556 
   vertex 0.8156431913 0.2773879766 0.4933291674 
   vertex 0.8524707556 0.2982259989 0.5301567316 
  endloop
 endfacet
 facet normal 0.008395 0.001139 -0.009040
  outer loop
   vertex 0.8156431913 0.2773879766 0.4933291674 
   vertex 0.7424489856 0.481431067 0.4510704875 
   vertex 0.8524707556 0.2982259989 0.5301567316 
  endloop
 endfacet
 facet normal 0.008395 0.001139 -0.009040
  outer loop
   vertex 0.8524707556 0.2982259989 0.5301567316 
   vertex 0.7424489856 0.481431067 0.4510704875 
   vertex 0.7792765498 0.5022690892 0.4878980517 
  endloop
 endfacet
 facet normal -0.006072 0.021462 -0.006072
  outer loop
   vertex 0.7424489856 0.481431067 0.4510704875 
   vertex 0.4510704875 0.481431067 0.7424489856 
   vertex 0.7792765498 0.5022690892 0.4878980517 
  endloop
 endfacet
 facet normal -0.006072 0.021462 -0.006072
  outer loop
   vertex 0.7792765498 0.5022690892 0.4878980517 
   vertex 0.4510704875 0.481431067 0.7424489856 
   vertex 0.4878980517 0.5022690892 0.7792765498 
  endloop
 endfacet
 facet normal -0.009040 0.001139 0.008395
  outer loop
   vertex 0.4510704875 0.481431067 0.7424489856 
   vertex 0.4933291674 0.2773879766 0.8156431913 
   vertex 0.4878980517 0.5022690892 0.7792765498 
  endloop
 endfacet
 facet normal -0.009040 0.001139 0.008395
  outer loop
   vertex 0.4878980517 0.5022690892 0.7792765498 
   vertex 0.4933291674 0.2773879766 0.8156431913 
   vertex 0.5301567316 0.2982259989 0.8524707556 
  endloop
 endfacet
endsolid
